<svg id="svg" version="1.1" xmlns="http://www.w3.org/2000/svg" xmlns:xlink="http://www.w3.org/1999/xlink" width="400" height="400" viewBox="0, 0, 400,400"><g id="svgg"><path id="path0" d="M131.600 58.216 C 131.600 104.909,131.760 101.920,129.139 104.226 C 126.489 106.558,129.898 106.387,83.717 106.498 L 41.400 106.600 41.400 127.000 L 41.400 147.400 146.200 147.600 L 251.000 147.800 252.493 148.728 C 257.776 152.013,257.383 159.632,251.779 162.572 L 250.200 163.400 145.700 163.502 L 41.200 163.604 41.200 170.970 C 41.200 175.020,41.309 178.619,41.443 178.967 C 41.664 179.543,53.984 179.600,177.043 179.600 L 312.400 179.600 312.400 97.800 L 312.400 16.000 222.000 16.000 L 131.600 16.000 131.600 58.216 M283.920 148.164 C 290.079 151.382,289.595 160.271,283.113 162.979 C 275.352 166.221,268.585 155.758,274.571 149.771 C 276.679 147.664,281.407 146.851,283.920 148.164 M41.600 354.600 L 41.600 384.000 177.205 384.000 L 312.811 384.000 312.705 370.500 L 312.600 357.000 207.800 356.800 L 103.000 356.600 101.332 355.468 C 95.374 351.425,96.411 343.266,103.182 340.906 C 104.293 340.519,127.117 340.411,208.700 340.406 L 312.800 340.400 312.800 333.433 C 312.800 329.601,312.691 326.181,312.557 325.833 C 312.336 325.257,300.016 325.200,176.957 325.200 L 41.600 325.200 41.600 354.600 M76.161 341.009 C 79.886 342.566,82.092 346.683,81.198 350.409 C 78.992 359.603,65.449 358.046,65.459 348.600 C 65.465 342.865,71.076 338.885,76.161 341.009 " stroke="none" fill="#bbe3ea" fill-rule="evenodd"></path><path id="path1" d="M83.619 59.003 L 52.238 90.400 83.919 90.400 L 115.600 90.400 115.600 59.000 C 115.600 41.730,115.465 27.601,115.300 27.603 C 115.135 27.605,100.879 41.735,83.619 59.003 M144.000 252.400 L 144.000 309.200 251.600 309.200 L 359.200 309.200 359.200 252.400 L 359.200 195.600 251.600 195.600 L 144.000 195.600 144.000 252.400 M254.400 215.235 C 263.320 217.941,267.792 222.267,270.283 230.600 C 271.401 234.341,271.368 270.042,270.242 274.200 C 268.051 282.292,262.629 287.552,254.400 289.566 C 248.391 291.037,238.218 290.640,234.400 288.785 C 234.070 288.625,233.260 288.252,232.600 287.957 C 227.013 285.462,223.066 280.637,221.348 274.200 C 220.667 271.652,220.600 269.691,220.600 252.400 C 220.600 231.348,220.703 230.327,223.300 225.614 C 226.290 220.187,229.961 217.446,237.209 215.229 C 240.800 214.131,250.771 214.134,254.400 215.235 M314.000 215.222 C 316.615 215.884,320.039 217.225,321.262 218.068 C 321.846 218.471,322.479 218.800,322.670 218.800 C 323.317 218.800,326.852 222.131,328.045 223.865 C 330.243 227.060,331.200 230.351,331.199 234.709 C 331.196 240.975,329.671 242.451,323.200 242.451 C 317.196 242.451,314.800 240.411,314.800 235.302 C 314.800 230.621,310.049 227.791,304.000 228.868 C 297.501 230.025,296.800 232.317,296.800 252.400 C 296.800 272.582,297.400 274.572,303.900 275.947 C 310.494 277.343,314.595 273.838,314.866 266.576 L 315.000 263.000 312.800 262.903 C 306.284 262.615,304.302 261.074,304.339 256.322 C 304.383 250.740,306.198 249.933,318.387 250.081 C 332.014 250.246,331.429 249.672,331.344 262.808 C 331.218 282.301,323.722 290.486,306.000 290.482 C 293.019 290.479,284.417 284.867,281.656 274.600 C 279.720 267.405,279.925 235.964,281.951 229.293 C 285.462 217.731,299.519 211.560,314.000 215.222 M183.708 214.823 C 184.537 215.053,185.752 215.766,186.408 216.407 L 187.600 217.573 187.600 246.587 L 187.600 275.600 199.700 275.601 C 213.219 275.603,213.567 275.668,215.061 278.482 C 215.989 280.231,216.025 285.303,215.121 287.001 C 213.547 289.957,214.716 289.787,195.098 289.912 C 175.863 290.035,174.803 289.932,172.757 287.755 L 171.800 286.736 171.800 252.122 L 171.800 217.509 173.340 216.177 C 174.188 215.445,175.358 214.772,175.940 214.683 C 178.137 214.345,182.255 214.420,183.708 214.823 M243.200 229.049 C 239.942 229.701,238.023 231.562,237.277 234.795 C 236.603 237.714,236.615 267.136,237.291 270.069 C 239.195 278.333,252.581 278.307,254.355 270.036 C 254.943 267.292,254.961 237.592,254.376 234.864 C 253.564 231.078,251.740 229.655,246.400 228.642 C 246.070 228.580,244.630 228.763,243.200 229.049 M329.067 325.467 C 328.676 325.857,328.740 337.916,329.134 338.159 C 329.416 338.333,332.391 336.047,336.808 332.264 C 337.363 331.789,339.388 330.076,341.308 328.457 C 343.229 326.838,344.800 325.443,344.800 325.357 C 344.800 325.081,329.344 325.189,329.067 325.467 " stroke="none" fill="#f9734b" fill-rule="evenodd"></path><path id="path2" d="M176.868 15.900 C 201.655 15.957,242.335 15.957,267.268 15.900 C 292.201 15.843,271.920 15.797,222.200 15.797 C 172.480 15.797,152.081 15.843,176.868 15.900 M312.594 129.600 C 312.594 156.990,312.642 168.195,312.700 154.500 C 312.758 140.805,312.758 118.395,312.700 104.700 C 312.642 91.005,312.594 102.210,312.594 129.600 M40.800 126.776 C 40.800 137.983,40.935 147.236,41.100 147.338 C 41.265 147.440,41.400 138.271,41.400 126.962 C 41.400 115.653,41.265 106.400,41.100 106.400 C 40.935 106.400,40.800 115.569,40.800 126.776 M285.599 149.801 C 286.368 150.680,287.155 151.580,287.348 151.800 C 287.540 152.020,287.511 151.840,287.283 151.400 C 287.055 150.960,286.268 150.060,285.534 149.401 L 284.200 148.202 285.599 149.801 M255.882 154.821 C 256.008 155.799,256.175 156.675,256.255 156.767 C 256.581 157.142,256.360 154.155,256.021 153.621 C 255.784 153.246,255.735 153.670,255.882 154.821 M273.200 159.458 C 273.200 159.674,273.785 160.379,274.500 161.025 L 275.800 162.200 274.600 160.802 C 273.940 160.033,273.355 159.328,273.300 159.235 C 273.245 159.143,273.200 159.243,273.200 159.458 M93.500 163.500 C 122.155 163.557,169.045 163.557,197.700 163.500 C 226.355 163.443,202.910 163.397,145.600 163.397 C 88.290 163.397,64.845 163.443,93.500 163.500 M279.305 163.487 C 279.914 163.579,280.814 163.577,281.305 163.482 C 281.797 163.387,281.300 163.311,280.200 163.314 C 279.100 163.317,278.697 163.395,279.305 163.487 M40.937 166.600 C 40.939 168.360,41.009 169.030,41.093 168.089 C 41.178 167.149,41.177 165.709,41.091 164.889 C 41.005 164.070,40.936 164.840,40.937 166.600 M41.334 236.466 C 41.480 258.943,41.600 284.503,41.600 293.266 L 41.600 309.200 84.800 309.200 L 128.000 309.200 128.000 252.400 L 128.000 195.600 84.534 195.600 L 41.068 195.600 41.334 236.466 M41.389 351.600 C 41.389 365.790,41.439 371.595,41.500 364.500 C 41.561 357.405,41.561 345.795,41.500 338.700 C 41.439 331.605,41.389 337.410,41.389 351.600 M71.800 340.598 C 72.818 340.943,76.062 341.085,75.554 340.763 C 75.249 340.570,74.190 340.424,73.200 340.438 C 72.210 340.452,71.580 340.524,71.800 340.598 M103.738 340.706 C 103.324 340.970,205.661 340.964,283.000 340.697 C 299.280 340.641,265.710 340.554,208.400 340.504 C 151.090 340.453,103.992 340.544,103.738 340.706 M99.729 342.900 C 99.284 343.395,98.776 344.070,98.601 344.400 C 98.263 345.037,98.355 344.950,99.976 343.100 C 100.506 342.495,100.849 342.000,100.739 342.000 C 100.629 342.000,100.175 342.405,99.729 342.900 M78.494 354.412 C 77.775 355.065,77.337 355.600,77.519 355.600 C 77.701 355.600,78.368 355.060,79.000 354.400 C 80.470 352.865,80.186 352.872,78.494 354.412 M209.000 356.799 L 312.600 357.000 312.705 370.499 L 312.811 383.999 177.105 384.100 L 41.400 384.202 177.200 384.201 L 313.000 384.200 313.112 371.200 C 313.173 364.050,313.125 357.795,313.004 357.300 L 312.785 356.400 209.092 356.499 L 105.400 356.598 209.000 356.799 " stroke="none" fill="#43bbcb" fill-rule="evenodd"></path><path id="path3" d="M119.449 0.286 C 118.552 0.516,26.023 92.945,25.300 94.332 C 24.903 95.095,24.804 125.893,24.818 244.546 C 24.836 400.812,24.793 396.598,26.386 397.129 C 26.614 397.205,26.800 397.527,26.800 397.846 C 26.800 398.164,27.115 398.544,27.500 398.690 C 27.885 398.836,28.439 399.191,28.730 399.479 C 29.166 399.910,55.695 399.985,177.344 399.902 L 325.427 399.800 326.913 398.313 C 327.731 397.496,328.400 396.551,328.400 396.213 C 328.400 395.876,328.580 395.600,328.800 395.600 C 329.061 395.600,329.200 389.390,329.200 377.771 C 329.200 359.359,329.246 358.800,330.768 358.800 C 331.185 358.800,332.487 357.799,334.159 356.191 C 334.621 355.747,335.623 354.942,336.384 354.404 C 337.800 353.403,339.492 351.908,342.615 348.900 C 343.585 347.965,344.545 347.200,344.749 347.200 C 344.952 347.200,346.038 346.300,347.161 345.200 C 348.285 344.100,349.338 343.200,349.502 343.200 C 349.666 343.199,350.340 342.734,351.000 342.166 C 351.660 341.597,352.819 340.652,353.575 340.066 C 354.331 339.480,355.591 338.443,356.375 337.763 C 357.159 337.083,358.229 336.183,358.754 335.763 C 359.279 335.343,360.490 334.235,361.444 333.300 C 362.398 332.365,363.345 331.600,363.549 331.600 C 363.752 331.600,364.838 330.700,365.961 329.600 C 367.085 328.500,368.148 327.600,368.324 327.600 C 368.637 327.600,370.465 326.040,373.147 323.484 C 373.888 322.778,374.653 321.783,374.847 321.274 C 375.046 320.752,375.200 290.668,375.200 252.254 L 375.200 184.160 374.105 182.472 C 373.503 181.543,372.513 180.563,371.905 180.294 C 371.297 180.025,370.800 179.669,370.800 179.502 C 370.800 179.336,370.091 179.200,369.224 179.200 C 368.357 179.200,367.536 179.020,367.400 178.800 C 367.241 178.542,360.396 178.400,348.176 178.400 L 329.200 178.400 329.200 92.424 C 329.200 35.537,329.065 6.364,328.800 6.200 C 328.580 6.064,328.400 5.463,328.400 4.865 C 328.400 4.235,328.063 3.533,327.600 3.200 C 327.160 2.883,326.800 2.303,326.800 1.912 C 326.800 1.480,326.502 1.200,326.043 1.200 C 325.626 1.200,325.182 0.930,325.055 0.600 C 324.831 0.016,121.710 -0.295,119.449 0.286 M313.000 97.800 L 313.000 179.800 176.800 179.800 L 40.600 179.800 40.600 171.600 L 40.600 163.400 144.600 163.176 C 207.331 163.040,249.177 162.802,250.055 162.576 C 256.705 160.859,257.338 151.484,251.000 148.568 C 250.523 148.349,207.898 148.119,145.400 148.000 L 40.600 147.800 40.600 127.000 L 40.600 106.200 82.800 105.979 C 127.947 105.743,126.587 105.813,128.767 103.633 C 131.293 101.107,131.200 102.887,131.200 57.253 L 131.200 15.598 222.100 15.699 L 313.000 15.800 313.000 97.800 M115.902 58.900 L 115.800 90.600 84.400 90.703 C 67.130 90.760,52.739 90.707,52.419 90.585 C 51.777 90.339,114.614 27.200,115.501 27.200 C 115.903 27.200,115.984 33.640,115.902 58.900 M277.022 148.845 C 272.118 151.501,271.319 158.421,275.600 161.145 C 276.150 161.495,276.724 161.958,276.875 162.174 C 277.471 163.024,282.910 162.664,284.284 161.684 C 291.690 156.402,284.978 144.535,277.022 148.845 M128.200 252.400 L 128.200 309.400 84.600 309.400 L 41.000 309.400 40.800 252.600 C 40.690 221.360,40.656 195.664,40.725 195.498 C 40.793 195.332,60.503 195.242,84.525 195.298 L 128.200 195.400 128.200 252.400 M359.400 252.400 L 359.400 309.400 251.500 309.501 L 143.600 309.601 143.600 252.400 L 143.600 195.199 251.500 195.299 L 359.400 195.400 359.400 252.400 M242.200 214.871 C 235.026 215.479,230.660 217.373,226.547 221.660 C 224.539 223.752,222.000 228.341,222.000 229.877 C 222.000 230.297,221.775 230.865,221.500 231.140 C 221.113 231.527,221.000 236.229,221.000 251.922 L 221.000 272.204 221.977 275.202 C 222.514 276.851,223.279 278.678,223.677 279.262 C 224.075 279.846,224.400 280.478,224.400 280.668 C 224.400 282.679,232.486 288.203,236.846 289.170 C 253.212 292.800,265.904 287.197,269.848 274.600 C 270.997 270.931,270.998 233.871,269.849 230.200 C 266.346 219.005,256.676 213.644,242.200 214.871 M302.800 214.709 C 292.299 215.227,284.956 220.749,281.938 230.400 C 280.469 235.097,280.475 269.734,281.945 274.400 C 283.775 280.204,286.014 283.404,290.182 286.171 C 298.300 291.559,313.983 291.466,322.000 285.983 C 328.992 281.200,331.154 275.359,331.184 261.167 L 331.200 253.733 329.846 252.167 L 328.491 250.600 318.000 250.600 L 307.509 250.600 306.154 252.167 C 303.473 255.269,304.710 261.420,308.174 262.210 C 308.628 262.314,310.440 262.444,312.200 262.499 L 315.400 262.600 315.537 263.800 C 316.618 273.233,309.842 278.781,301.184 275.552 C 297.156 274.049,296.813 272.245,296.806 252.504 C 296.798 230.616,297.020 229.913,304.400 228.444 C 310.364 227.258,314.278 229.982,315.342 236.061 C 316.249 241.240,317.351 242.055,323.443 242.050 C 329.177 242.045,331.158 240.185,331.168 234.800 C 331.191 222.155,319.513 213.884,302.800 214.709 M175.119 215.345 C 174.525 215.608,173.580 216.255,173.019 216.782 L 172.000 217.739 172.000 251.981 C 172.000 290.327,171.764 287.387,174.953 288.835 C 177.652 290.060,211.788 289.997,213.356 288.763 C 216.625 286.192,216.279 278.399,212.816 276.608 C 211.840 276.104,209.594 276.000,199.620 276.000 L 187.600 276.000 187.600 247.587 C 187.600 215.523,187.748 217.122,184.653 215.667 C 182.548 214.677,177.042 214.491,175.119 215.345 M248.135 228.656 C 251.152 229.118,253.315 230.815,254.436 233.600 C 255.362 235.899,255.247 269.651,254.307 271.659 C 251.203 278.286,240.584 278.250,237.294 271.600 C 236.249 269.487,236.238 235.370,237.282 233.158 C 238.112 231.398,240.427 229.299,241.907 228.964 C 242.508 228.828,243.540 228.572,244.200 228.395 C 244.860 228.218,245.641 228.147,245.935 228.237 C 246.229 228.328,247.219 228.516,248.135 228.656 M313.509 332.571 C 313.581 337.568,313.472 340.288,313.189 340.571 C 312.887 340.873,281.651 341.059,207.513 341.200 C 123.814 341.359,102.233 341.502,102.100 341.900 C 102.008 342.175,101.739 342.400,101.502 342.400 C 98.375 342.400,97.141 349.640,99.653 353.251 C 101.588 356.032,91.512 355.777,208.400 356.000 L 313.400 356.200 313.505 370.173 C 313.587 381.086,313.500 384.217,313.105 384.467 C 312.525 384.836,42.392 384.925,41.433 384.557 C 40.772 384.304,40.412 325.721,41.067 325.066 C 41.214 324.919,102.549 324.844,177.367 324.899 L 313.400 325.000 313.509 332.571 M345.372 325.155 C 345.493 325.351,344.739 326.205,343.696 327.053 C 342.653 327.901,341.350 328.982,340.800 329.454 C 335.261 334.210,329.458 338.800,328.985 338.800 C 328.369 338.800,328.064 325.669,328.667 325.067 C 329.071 324.662,345.120 324.747,345.372 325.155 M68.733 342.900 C 65.413 345.859,65.076 351.447,68.071 353.884 C 73.343 358.174,80.472 355.272,80.560 348.800 C 80.644 342.599,73.223 338.898,68.733 342.900 " stroke="none" fill="#040404" fill-rule="evenodd"></path><path id="path4" d="M131.295 57.500 C 131.347 80.545,131.437 92.650,131.495 84.400 C 131.769 44.967,131.772 15.600,131.500 15.600 C 131.335 15.600,131.243 34.455,131.295 57.500 M312.480 97.400 L 312.600 179.400 176.963 179.501 L 41.326 179.601 41.053 171.730 C 40.839 165.560,40.891 163.781,41.290 163.499 C 41.676 163.227,41.654 163.179,41.200 163.303 C 40.692 163.442,40.600 164.714,40.600 171.633 L 40.600 179.800 176.800 179.800 L 313.000 179.800 313.101 98.021 C 313.171 41.132,313.074 16.114,312.780 15.821 C 312.485 15.526,312.395 39.952,312.480 97.400 M83.418 58.782 C 62.182 80.019,52.029 90.436,52.419 90.585 C 52.739 90.707,67.130 90.760,84.400 90.703 L 115.800 90.600 115.902 58.900 C 115.984 33.640,115.903 27.200,115.501 27.200 C 115.225 27.200,100.787 41.412,83.418 58.782 M115.600 59.000 L 115.600 90.400 83.919 90.400 L 52.238 90.400 83.619 59.003 C 100.879 41.735,115.135 27.605,115.300 27.603 C 115.465 27.601,115.600 41.730,115.600 59.000 M130.634 100.741 C 130.255 102.350,127.766 104.953,126.158 105.422 C 125.521 105.607,106.010 105.858,82.800 105.979 L 40.600 106.200 40.600 127.000 L 40.600 147.800 145.400 148.000 C 207.898 148.119,250.523 148.349,251.000 148.568 C 256.986 151.322,256.513 162.250,250.400 162.427 C 249.850 162.443,249.040 162.627,248.600 162.835 C 248.015 163.111,248.262 163.156,249.517 162.999 C 256.598 162.117,258.326 152.604,252.109 148.738 L 250.600 147.800 145.800 147.600 L 41.000 147.400 40.896 126.905 L 40.793 106.411 83.296 106.305 L 125.800 106.200 127.675 105.014 C 129.633 103.775,131.367 101.287,131.103 100.095 C 131.005 99.654,130.833 99.890,130.634 100.741 M277.000 148.265 C 274.804 149.422,272.291 152.425,272.959 153.093 C 273.079 153.213,273.344 152.881,273.547 152.355 C 275.702 146.772,284.423 146.734,286.884 152.297 C 289.218 157.574,285.898 162.616,280.112 162.584 C 278.523 162.575,277.443 162.707,277.712 162.878 C 279.451 163.983,283.990 162.856,285.973 160.828 C 291.762 154.906,284.278 144.428,277.000 148.265 M272.509 155.600 C 272.509 156.590,272.587 156.995,272.682 156.500 C 272.778 156.005,272.778 155.195,272.682 154.700 C 272.587 154.205,272.509 154.610,272.509 155.600 M272.800 157.826 C 272.800 158.733,274.876 161.391,276.100 162.051 C 277.277 162.685,276.872 161.844,275.672 161.162 C 275.055 160.810,274.237 159.865,273.856 159.062 C 273.226 157.734,272.800 157.236,272.800 157.826 M40.725 195.498 C 40.656 195.664,40.690 221.360,40.800 252.600 L 41.000 309.400 84.600 309.400 L 128.200 309.400 128.200 252.400 L 128.200 195.400 84.525 195.298 C 60.503 195.242,40.793 195.332,40.725 195.498 M143.600 252.400 L 143.600 309.601 251.500 309.501 L 359.400 309.400 359.400 252.400 L 359.400 195.400 251.500 195.299 L 143.600 195.199 143.600 252.400 M128.000 252.400 L 128.000 309.200 84.800 309.200 L 41.600 309.200 41.600 293.266 C 41.600 284.503,41.480 258.943,41.334 236.466 L 41.068 195.600 84.534 195.600 L 128.000 195.600 128.000 252.400 M359.200 252.400 L 359.200 309.200 251.600 309.200 L 144.000 309.200 144.000 252.400 L 144.000 195.600 251.600 195.600 L 359.200 195.600 359.200 252.400 M245.960 214.522 C 246.138 214.699,247.345 214.786,248.642 214.717 L 251.000 214.590 248.318 214.395 C 246.843 214.288,245.782 214.345,245.960 214.522 M178.311 214.693 C 179.251 214.778,180.691 214.777,181.511 214.691 C 182.330 214.605,181.560 214.536,179.800 214.537 C 178.040 214.539,177.370 214.609,178.311 214.693 M241.907 214.690 C 242.626 214.779,243.706 214.777,244.307 214.686 C 244.908 214.595,244.320 214.522,243.000 214.524 C 241.680 214.526,241.188 214.601,241.907 214.690 M301.700 214.687 C 302.305 214.778,303.295 214.778,303.900 214.687 C 304.505 214.595,304.010 214.520,302.800 214.520 C 301.590 214.520,301.095 214.595,301.700 214.687 M307.107 214.690 C 307.826 214.779,308.906 214.777,309.507 214.686 C 310.108 214.595,309.520 214.522,308.200 214.524 C 306.880 214.526,306.388 214.601,307.107 214.690 M183.233 214.938 C 183.811 215.419,186.000 216.285,186.000 216.034 C 186.000 215.691,184.205 214.800,183.515 214.800 C 183.268 214.800,183.142 214.862,183.233 214.938 M237.400 215.200 L 236.600 215.544 237.400 215.544 C 237.840 215.544,238.560 215.389,239.000 215.200 L 239.800 214.856 239.000 214.856 C 238.560 214.856,237.840 215.011,237.400 215.200 M252.400 215.200 C 252.950 215.376,253.760 215.526,254.200 215.532 L 255.000 215.544 254.200 215.200 C 253.760 215.011,252.950 214.862,252.400 214.868 L 251.400 214.880 252.400 215.200 M297.400 215.200 L 296.600 215.544 297.400 215.544 C 297.840 215.544,298.560 215.389,299.000 215.200 L 299.800 214.856 299.000 214.856 C 298.560 214.856,297.840 215.011,297.400 215.200 M312.400 215.200 C 313.768 215.638,314.819 215.638,313.800 215.200 C 313.360 215.011,312.640 214.862,312.200 214.868 C 311.557 214.877,311.596 214.943,312.400 215.200 M186.724 217.000 C 186.926 217.440,187.192 218.070,187.314 218.400 C 187.507 218.918,187.541 218.915,187.568 218.376 C 187.586 218.034,187.320 217.404,186.978 216.976 C 186.366 216.212,186.362 216.213,186.724 217.000 M230.400 218.036 C 229.736 218.579,229.669 218.715,230.200 218.440 C 231.505 217.766,232.228 217.212,231.800 217.215 C 231.580 217.217,230.950 217.586,230.400 218.036 M260.000 217.620 C 261.387 218.561,262.178 218.835,261.200 218.036 C 260.650 217.586,260.020 217.217,259.800 217.215 C 259.580 217.213,259.670 217.396,260.000 217.620 M289.795 218.558 C 287.821 219.901,284.773 222.800,285.334 222.800 C 285.494 222.800,286.164 222.186,286.823 221.435 C 287.483 220.684,288.917 219.495,290.011 218.793 C 291.728 217.691,292.309 217.200,291.895 217.200 C 291.837 217.200,290.892 217.811,289.795 218.558 M171.791 252.200 C 171.791 270.900,171.840 278.492,171.900 269.070 C 171.960 259.649,171.960 244.349,171.900 235.070 C 171.840 225.792,171.791 233.500,171.791 252.200 M227.936 219.702 C 227.350 220.196,226.282 221.320,225.561 222.200 C 224.635 223.331,224.976 223.100,226.725 221.413 C 228.086 220.099,229.200 218.974,229.200 218.913 C 229.200 218.684,228.976 218.824,227.936 219.702 M262.445 219.051 C 262.470 219.243,263.595 220.390,264.945 221.599 C 266.295 222.809,267.025 223.349,266.567 222.799 C 264.506 220.327,262.358 218.374,262.445 219.051 M323.194 219.582 C 323.741 220.002,324.268 220.266,324.365 220.169 C 324.591 219.942,323.129 218.827,322.600 218.822 C 322.380 218.820,322.647 219.161,323.194 219.582 M324.800 220.629 C 324.800 220.837,325.168 221.238,325.618 221.519 C 326.068 221.800,327.148 223.131,328.018 224.477 C 328.888 225.823,329.600 226.777,329.600 226.597 C 329.600 226.417,329.067 225.440,328.416 224.426 C 327.163 222.472,324.800 219.991,324.800 220.629 M284.214 224.235 C 283.841 224.804,283.627 225.361,283.739 225.472 C 283.850 225.583,284.229 225.118,284.581 224.437 C 285.359 222.933,285.144 222.815,284.214 224.235 M223.065 225.952 C 222.479 227.028,222.004 228.154,222.009 228.454 C 222.014 228.754,222.543 227.924,223.185 226.609 C 224.608 223.692,224.529 223.261,223.065 225.952 M244.400 228.399 C 243.658 228.620,243.950 228.701,245.528 228.710 C 246.698 228.717,247.598 228.675,247.528 228.618 C 247.109 228.274,245.252 228.144,244.400 228.399 M304.800 228.364 C 304.158 228.546,304.803 228.653,306.600 228.662 C 308.576 228.672,309.047 228.591,308.200 228.386 C 306.674 228.016,306.040 228.011,304.800 228.364 M241.200 229.218 C 240.762 229.515,240.924 229.552,241.800 229.356 C 243.271 229.027,243.590 228.798,242.567 228.806 C 242.145 228.809,241.530 228.995,241.200 229.218 M248.433 228.944 C 248.525 229.023,249.140 229.208,249.800 229.356 C 250.676 229.552,250.838 229.515,250.400 229.218 C 249.860 228.853,248.032 228.598,248.433 228.944 M310.797 229.437 C 311.566 229.770,312.644 230.438,313.194 230.922 L 314.194 231.800 313.398 230.859 C 312.534 229.838,310.751 228.791,309.920 228.816 C 309.634 228.824,310.029 229.104,310.797 229.437 M221.646 229.467 C 221.621 229.724,221.484 230.264,221.341 230.667 C 221.140 231.236,221.194 231.297,221.579 230.942 C 221.852 230.691,221.989 230.151,221.884 229.742 C 221.779 229.334,221.672 229.210,221.646 229.467 M269.656 229.600 C 269.656 229.930,269.811 230.560,270.000 231.000 C 270.217 231.504,270.344 231.578,270.344 231.200 C 270.344 230.870,270.189 230.240,270.000 229.800 C 269.783 229.296,269.656 229.222,269.656 229.600 M330.468 229.800 C 330.474 230.240,330.624 231.050,330.800 231.600 L 331.120 232.600 331.132 231.600 C 331.138 231.050,330.989 230.240,330.800 229.800 L 330.456 229.000 330.468 229.800 M238.806 230.994 C 238.063 231.761,237.534 232.467,237.631 232.565 C 237.728 232.662,238.401 232.034,239.127 231.171 C 240.760 229.225,240.603 229.139,238.806 230.994 M252.435 231.071 C 253.182 231.989,253.875 232.658,253.976 232.557 C 254.077 232.456,253.467 231.704,252.619 230.887 L 251.079 229.400 252.435 231.071 M281.429 231.029 C 281.281 231.615,281.238 232.172,281.332 232.266 C 281.427 232.360,281.624 231.958,281.771 231.371 C 281.919 230.785,281.962 230.228,281.868 230.134 C 281.773 230.040,281.576 230.442,281.429 231.029 M298.049 232.252 C 297.383 233.714,297.674 233.795,298.489 232.374 C 298.860 231.728,299.020 231.200,298.846 231.200 C 298.671 231.200,298.313 231.673,298.049 232.252 M220.657 234.459 C 220.324 237.649,220.389 268.389,220.735 271.000 C 220.881 272.100,221.000 263.775,221.000 252.500 C 221.000 241.225,220.981 232.000,220.957 232.000 C 220.933 232.000,220.798 233.106,220.657 234.459 M270.600 252.400 C 270.600 263.684,270.725 272.215,270.877 271.358 C 271.238 269.327,271.238 235.473,270.877 233.442 C 270.725 232.585,270.600 241.116,270.600 252.400 M237.049 233.815 C 236.912 234.173,236.816 234.856,236.836 235.333 C 236.862 235.947,236.985 235.808,237.259 234.856 C 237.657 233.472,237.494 232.658,237.049 233.815 M254.258 234.400 C 254.575 236.125,254.802 236.451,254.794 235.167 C 254.791 234.635,254.611 233.930,254.394 233.600 C 254.118 233.178,254.077 233.415,254.258 234.400 M297.056 234.884 C 296.921 235.388,296.828 236.250,296.849 236.800 C 296.872 237.389,297.031 237.071,297.236 236.025 C 297.603 234.152,297.473 233.327,297.056 234.884 M314.874 235.400 C 314.864 236.280,315.011 237.360,315.200 237.800 L 315.544 238.600 315.549 237.800 C 315.552 237.360,315.405 236.280,315.223 235.400 L 314.892 233.800 314.874 235.400 M280.659 236.500 C 280.329 239.249,280.392 266.413,280.735 269.000 C 280.881 270.100,281.000 262.765,281.000 252.700 C 281.000 242.635,280.980 234.400,280.956 234.400 C 280.931 234.400,280.798 235.345,280.659 236.500 M330.400 238.699 C 330.024 239.887,329.462 240.759,328.893 241.037 C 327.575 241.682,327.265 242.097,328.415 241.679 C 329.626 241.238,331.200 239.013,331.200 237.741 C 331.200 236.408,331.080 236.552,330.400 238.699 M236.582 252.400 C 236.582 260.870,236.635 264.335,236.699 260.100 C 236.764 255.865,236.764 248.935,236.699 244.700 C 236.635 240.465,236.582 243.930,236.582 252.400 M254.981 252.400 C 254.981 260.650,255.034 264.025,255.099 259.900 C 255.164 255.775,255.164 249.025,255.099 244.900 C 255.034 240.775,254.981 244.150,254.981 252.400 M315.616 239.230 C 315.561 241.405,325.352 243.981,327.085 242.248 C 327.196 242.137,325.602 242.048,323.543 242.050 C 319.228 242.054,317.142 241.384,316.229 239.700 C 315.871 239.040,315.626 238.852,315.616 239.230 M308.138 250.295 C 307.884 250.463,312.360 250.600,318.084 250.600 L 328.491 250.600 329.879 252.200 C 330.861 253.332,331.132 253.507,330.806 252.800 C 329.667 250.328,329.124 250.210,318.400 250.095 C 313.010 250.037,308.392 250.127,308.138 250.295 M306.129 251.700 C 305.684 252.195,305.176 252.870,305.001 253.200 C 304.663 253.837,304.755 253.750,306.376 251.900 C 306.906 251.295,307.249 250.800,307.139 250.800 C 307.029 250.800,306.575 251.205,306.129 251.700 M304.338 255.300 C 304.255 256.015,304.304 257.140,304.447 257.800 C 304.634 258.669,304.718 258.311,304.753 256.500 C 304.803 253.817,304.582 253.177,304.338 255.300 M331.357 260.800 C 331.357 263.770,331.420 264.985,331.497 263.500 C 331.574 262.015,331.574 259.585,331.497 258.100 C 331.420 256.615,331.357 257.830,331.357 260.800 M311.800 262.764 L 315.000 263.000 314.934 266.200 C 314.874 269.113,314.901 269.238,315.241 267.600 C 315.447 266.610,315.566 265.080,315.507 264.200 L 315.400 262.600 312.000 262.564 L 308.600 262.529 311.800 262.764 M296.806 268.433 C 296.809 269.185,296.992 270.070,297.212 270.400 C 297.491 270.819,297.533 270.458,297.350 269.200 C 297.025 266.959,296.798 266.640,296.806 268.433 M236.846 269.600 C 236.827 270.150,236.987 270.870,237.200 271.200 C 237.694 271.964,237.694 271.142,237.200 269.600 L 236.880 268.600 236.846 269.600 M254.454 269.467 C 254.425 269.944,254.296 270.664,254.170 271.067 C 253.952 271.761,253.964 271.762,254.396 271.088 C 254.647 270.697,254.775 269.977,254.681 269.488 C 254.509 268.601,254.509 268.601,254.454 269.467 M330.867 270.050 C 330.830 270.627,330.705 271.707,330.589 272.450 C 330.396 273.686,330.415 273.717,330.808 272.814 C 331.045 272.271,331.170 271.191,331.086 270.414 C 330.977 269.392,330.916 269.291,330.867 270.050 M314.184 271.270 C 314.025 271.781,313.521 272.740,313.063 273.400 C 312.510 274.199,312.448 274.427,312.879 274.082 C 313.624 273.485,314.965 270.832,314.671 270.537 C 314.562 270.429,314.343 270.758,314.184 271.270 M297.602 271.633 C 297.603 271.945,298.068 272.740,298.636 273.400 L 299.668 274.600 298.764 273.000 C 297.623 270.979,297.600 270.951,297.602 271.633 M237.613 272.311 C 237.663 273.383,241.290 276.140,242.302 275.875 C 242.819 275.740,242.763 275.681,242.089 275.646 C 241.588 275.621,240.376 274.797,239.389 273.811 C 238.405 272.826,237.606 272.151,237.613 272.311 M252.143 273.840 C 251.231 274.771,250.061 275.614,249.543 275.712 C 248.671 275.878,248.665 275.895,249.461 275.946 C 250.286 275.998,254.436 272.675,254.000 272.312 C 253.890 272.221,253.054 272.908,252.143 273.840 M281.234 273.000 C 281.222 273.440,281.387 274.070,281.600 274.400 C 282.114 275.195,282.114 274.196,281.600 273.000 L 281.256 272.200 281.234 273.000 M269.829 274.229 C 269.681 274.815,269.638 275.372,269.732 275.466 C 269.827 275.560,270.024 275.158,270.171 274.571 C 270.319 273.985,270.362 273.428,270.268 273.334 C 270.173 273.240,269.976 273.642,269.829 274.229 M329.873 274.553 C 329.723 274.945,329.611 275.566,329.625 275.933 C 329.642 276.375,329.781 276.274,330.037 275.634 C 330.249 275.103,330.361 274.482,330.285 274.254 C 330.209 274.027,330.024 274.161,329.873 274.553 M300.800 275.400 C 301.350 275.714,302.160 275.970,302.600 275.968 C 303.040 275.966,302.680 275.705,301.800 275.388 C 299.796 274.666,299.522 274.670,300.800 275.400 M282.028 275.876 C 282.013 276.358,282.180 276.864,282.400 277.000 C 282.873 277.292,282.873 276.901,282.400 275.800 C 282.069 275.029,282.055 275.031,282.028 275.876 M199.800 275.989 C 213.430 276.221,213.467 276.228,214.779 278.712 C 215.211 279.531,215.573 280.056,215.582 279.880 C 215.629 279.041,214.228 277.084,213.081 276.384 C 211.875 275.649,211.082 275.608,199.600 275.690 L 187.400 275.778 199.800 275.989 M222.012 276.400 C 222.012 276.730,222.187 277.270,222.400 277.600 C 222.745 278.133,222.788 278.133,222.788 277.600 C 222.788 277.270,222.613 276.730,222.400 276.400 C 222.055 275.867,222.012 275.867,222.012 276.400 M244.359 276.501 C 245.128 276.701,246.338 276.703,247.157 276.506 C 248.408 276.206,248.228 276.159,245.802 276.155 C 243.438 276.151,243.214 276.205,244.359 276.501 M268.730 277.618 C 268.361 278.488,268.131 279.200,268.219 279.200 C 268.513 279.200,269.650 276.751,269.524 276.391 C 269.456 276.196,269.098 276.749,268.730 277.618 M304.700 276.482 C 305.417 276.670,306.583 276.670,307.300 276.482 C 308.392 276.196,308.183 276.141,306.000 276.141 C 303.817 276.141,303.608 276.196,304.700 276.482 M282.800 277.753 C 282.800 278.182,283.990 280.400,284.221 280.400 C 284.331 280.400,284.123 279.815,283.759 279.100 C 283.017 277.640,282.800 277.336,282.800 277.753 M223.160 279.000 C 223.834 280.305,224.388 281.028,224.385 280.600 C 224.383 280.380,224.014 279.750,223.564 279.200 C 223.021 278.536,222.885 278.469,223.160 279.000 M327.814 279.835 C 327.441 280.404,327.205 280.938,327.289 281.022 C 327.373 281.107,327.758 280.641,328.144 279.988 C 329.006 278.528,328.748 278.409,327.814 279.835 M215.709 282.800 C 215.709 283.790,215.787 284.195,215.882 283.700 C 215.978 283.205,215.978 282.395,215.882 281.900 C 215.787 281.405,215.709 281.810,215.709 282.800 M225.493 282.638 C 226.195 283.540,227.088 284.530,227.477 284.838 C 227.866 285.147,227.610 284.663,226.907 283.762 C 226.205 282.860,225.312 281.870,224.923 281.562 C 224.534 281.253,224.790 281.737,225.493 282.638 M264.596 283.700 C 263.283 285.075,262.567 285.937,263.004 285.616 C 264.316 284.655,267.551 281.200,267.140 281.200 C 267.054 281.200,265.909 282.325,264.596 283.700 M325.381 283.221 C 324.512 284.113,322.938 285.396,321.885 286.073 C 320.831 286.749,320.058 287.391,320.166 287.499 C 320.450 287.784,323.935 285.135,325.781 283.231 C 326.651 282.334,327.272 281.600,327.162 281.600 C 327.052 281.600,326.251 282.330,325.381 283.221 M286.400 283.425 C 287.845 285.100,291.524 287.810,291.875 287.458 C 291.985 287.348,291.539 286.982,290.886 286.644 C 290.232 286.306,288.640 285.078,287.348 283.916 C 285.274 282.049,285.163 281.992,286.400 283.425 M230.400 286.764 C 230.950 287.214,231.580 287.583,231.800 287.585 C 232.228 287.588,231.505 287.034,230.200 286.360 C 229.669 286.085,229.736 286.221,230.400 286.764 M260.600 286.800 C 259.940 287.237,259.580 287.592,259.800 287.588 C 260.201 287.582,262.376 286.023,262.000 286.012 C 261.890 286.008,261.260 286.363,260.600 286.800 M172.012 286.664 C 171.997 287.226,174.272 289.201,174.931 289.199 C 175.189 289.198,174.831 288.850,174.135 288.426 C 173.439 288.002,172.680 287.327,172.447 286.927 C 172.215 286.527,172.019 286.409,172.012 286.664 M213.478 288.613 C 212.860 289.156,212.514 289.600,212.708 289.600 C 212.902 289.600,213.483 289.150,214.000 288.600 C 215.195 287.328,214.931 287.334,213.478 288.613 M317.200 288.400 C 316.210 288.815,315.670 289.152,316.000 289.148 C 316.672 289.140,320.028 287.663,319.400 287.652 C 319.180 287.648,318.190 287.985,317.200 288.400 M255.800 288.800 C 255.029 289.131,255.031 289.145,255.876 289.172 C 256.358 289.187,256.864 289.020,257.000 288.800 C 257.292 288.327,256.901 288.327,255.800 288.800 M237.200 289.580 C 238.199 289.920,240.682 290.132,240.367 289.851 C 240.275 289.769,239.300 289.599,238.200 289.472 C 236.851 289.316,236.526 289.351,237.200 289.580 M252.400 289.600 C 251.033 289.888,251.028 289.895,252.200 289.919 C 252.860 289.933,253.760 289.789,254.200 289.600 C 255.162 289.187,254.364 289.187,252.400 289.600 M185.500 289.900 C 190.395 289.963,198.405 289.963,203.300 289.900 C 208.195 289.836,204.190 289.784,194.400 289.784 C 184.610 289.784,180.605 289.836,185.500 289.900 M240.833 290.148 C 240.925 290.229,242.350 290.396,244.000 290.519 C 246.224 290.684,246.586 290.652,245.400 290.394 C 243.799 290.046,240.519 289.869,240.833 290.148 M248.105 290.287 C 248.714 290.379,249.614 290.377,250.105 290.282 C 250.597 290.187,250.100 290.111,249.000 290.114 C 247.900 290.117,247.497 290.195,248.105 290.287 M301.705 290.287 C 302.314 290.379,303.214 290.377,303.705 290.282 C 304.197 290.187,303.700 290.111,302.600 290.114 C 301.500 290.117,301.097 290.195,301.705 290.287 M308.505 290.287 C 309.114 290.379,310.014 290.377,310.505 290.282 C 310.997 290.187,310.500 290.111,309.400 290.114 C 308.300 290.117,307.897 290.195,308.505 290.287 M305.300 290.676 C 305.685 290.776,306.315 290.776,306.700 290.676 C 307.085 290.575,306.770 290.493,306.000 290.493 C 305.230 290.493,304.915 290.575,305.300 290.676 M41.067 325.066 C 40.412 325.721,40.772 384.304,41.433 384.557 C 42.392 384.925,312.525 384.836,313.105 384.467 C 313.500 384.217,313.587 381.086,313.505 370.173 L 313.400 356.200 208.400 356.000 C 91.512 355.777,101.588 356.032,99.653 353.251 C 97.126 349.617,98.378 342.400,101.536 342.400 C 101.791 342.400,102.000 342.198,102.000 341.951 C 102.000 341.118,100.237 342.613,98.900 344.579 C 96.276 348.438,97.702 353.392,102.084 355.639 C 103.532 356.381,106.138 356.400,208.176 356.400 L 312.785 356.400 313.004 357.300 C 313.125 357.795,313.173 364.050,313.112 371.200 L 313.000 384.200 177.362 384.301 L 41.724 384.401 41.462 378.937 C 41.132 372.056,41.116 326.685,41.443 325.833 C 41.664 325.257,54.002 325.200,177.251 325.200 L 312.817 325.200 312.709 332.900 L 312.600 340.600 207.733 340.800 C 150.057 340.910,102.777 341.090,102.667 341.200 C 102.247 341.619,312.060 341.196,312.845 340.776 C 313.573 340.386,313.611 339.923,313.509 332.681 L 313.400 325.000 177.367 324.899 C 102.549 324.844,41.214 324.919,41.067 325.066 M328.667 325.067 C 328.064 325.669,328.369 338.800,328.985 338.800 C 329.458 338.800,335.261 334.210,340.800 329.454 C 341.350 328.982,342.653 327.901,343.696 327.053 C 344.739 326.205,345.493 325.351,345.372 325.155 C 345.120 324.747,329.071 324.662,328.667 325.067 M344.800 325.357 C 344.800 325.443,343.229 326.838,341.308 328.457 C 339.388 330.076,337.363 331.789,336.808 332.264 C 332.391 336.047,329.416 338.333,329.134 338.159 C 328.740 337.916,328.676 325.857,329.067 325.467 C 329.344 325.189,344.800 325.081,344.800 325.357 M70.200 341.390 C 62.571 344.945,64.882 356.400,73.228 356.400 C 81.819 356.400,84.219 344.725,76.307 341.419 C 74.485 340.658,71.800 340.645,70.200 341.390 M76.883 342.100 C 83.488 345.885,80.781 356.000,73.163 356.000 C 71.783 356.000,69.511 355.056,68.071 353.884 C 61.935 348.892,69.975 338.141,76.883 342.100 " stroke="none" fill="#395558" fill-rule="evenodd"></path></g></svg>