<svg id="svg" version="1.1" xmlns="http://www.w3.org/2000/svg" xmlns:xlink="http://www.w3.org/1999/xlink" width="400" height="400" viewBox="0, 0, 400,400"><g id="svgg"><path id="path0" d="M252.600 185.020 C 246.951 185.669,244.076 186.169,238.200 187.526 C 236.582 187.899,228.475 190.540,227.000 191.175 C 226.560 191.364,225.480 191.829,224.600 192.208 C 216.811 195.564,210.426 199.374,203.300 204.918 L 199.200 208.108 199.200 268.654 L 199.200 329.200 257.200 329.200 C 295.600 329.200,315.200 329.065,315.200 328.800 C 315.200 328.580,315.740 328.400,316.400 328.400 C 317.060 328.400,317.600 328.220,317.600 328.000 C 317.600 327.780,317.960 327.600,318.400 327.600 C 318.840 327.600,319.200 327.420,319.200 327.200 C 319.200 326.980,319.468 326.800,319.795 326.800 C 320.803 326.800,325.983 322.204,325.994 321.300 C 325.997 321.025,326.180 320.800,326.400 320.800 C 326.620 320.800,326.800 320.440,326.800 320.000 C 326.800 319.560,326.980 319.200,327.200 319.200 C 327.420 319.200,327.600 318.840,327.600 318.400 C 327.600 317.960,327.780 317.600,328.000 317.600 C 328.220 317.600,328.400 317.161,328.400 316.624 C 328.400 316.087,328.580 315.536,328.800 315.400 C 329.372 315.046,329.352 211.200,328.780 211.200 C 328.548 211.200,326.883 209.889,325.080 208.286 C 318.885 202.782,313.709 199.249,306.200 195.398 C 297.349 190.860,290.989 188.587,281.000 186.393 C 272.818 184.595,261.189 184.033,252.600 185.020 M73.200 322.967 C 73.200 323.388,74.405 324.528,74.621 324.312 C 74.722 324.211,74.444 323.802,74.002 323.402 C 73.561 323.003,73.200 322.807,73.200 322.967 " stroke="none" fill="#047cc4" fill-rule="evenodd"></path><path id="path1" d="M39.300 0.287 C 38.145 0.372,37.200 0.612,37.200 0.821 C 37.200 1.029,36.660 1.200,36.000 1.200 C 35.340 1.200,34.800 1.380,34.800 1.600 C 34.800 1.820,34.260 2.000,33.600 2.000 C 32.940 2.000,32.400 2.180,32.400 2.400 C 32.400 2.620,31.961 2.800,31.424 2.800 C 30.887 2.800,30.336 2.980,30.200 3.200 C 30.064 3.420,29.603 3.600,29.176 3.600 C 28.749 3.600,28.400 3.780,28.400 4.000 C 28.400 4.220,28.040 4.400,27.600 4.400 C 27.160 4.400,26.800 4.580,26.800 4.800 C 26.800 5.020,26.530 5.200,26.200 5.200 C 25.870 5.200,25.600 5.380,25.600 5.600 C 25.600 5.820,25.280 6.000,24.888 6.000 C 24.497 6.000,23.917 6.360,23.600 6.800 C 23.283 7.240,22.703 7.600,22.312 7.600 C 21.920 7.600,21.600 7.758,21.600 7.951 C 21.600 8.145,21.032 8.538,20.337 8.826 C 18.696 9.506,9.506 18.696,8.826 20.337 C 8.538 21.032,8.145 21.600,7.951 21.600 C 7.758 21.600,7.600 21.920,7.600 22.312 C 7.600 22.703,7.240 23.283,6.800 23.600 C 6.360 23.917,6.000 24.497,6.000 24.888 C 6.000 25.280,5.820 25.600,5.600 25.600 C 5.380 25.600,5.200 25.870,5.200 26.200 C 5.200 26.530,5.020 26.800,4.800 26.800 C 4.580 26.800,4.400 27.160,4.400 27.600 C 4.400 28.040,4.220 28.400,4.000 28.400 C 3.780 28.400,3.600 28.749,3.600 29.176 C 3.600 29.603,3.420 30.064,3.200 30.200 C 2.980 30.336,2.800 30.887,2.800 31.424 C 2.800 31.961,2.620 32.400,2.400 32.400 C 2.180 32.400,2.000 32.940,2.000 33.600 C 2.000 34.260,1.820 34.800,1.600 34.800 C 1.380 34.800,1.200 35.325,1.200 35.967 C 1.200 36.608,0.975 37.208,0.700 37.300 C -0.033 37.544,-0.033 95.256,0.700 95.500 C 0.975 95.592,1.200 96.012,1.200 96.433 C 1.200 96.855,1.350 97.200,1.532 97.200 C 1.715 97.200,2.120 97.695,2.432 98.300 C 3.057 99.510,7.438 104.000,7.994 104.000 C 8.186 104.000,8.588 104.225,8.887 104.500 C 9.808 105.347,11.151 106.000,11.971 106.000 C 12.401 106.000,12.864 106.180,13.000 106.400 C 13.330 106.933,24.270 106.933,24.600 106.400 C 24.736 106.180,25.287 106.000,25.824 106.000 C 26.361 106.000,26.800 105.820,26.800 105.600 C 26.800 105.380,27.160 105.200,27.600 105.200 C 28.040 105.200,28.400 105.020,28.400 104.800 C 28.400 104.580,28.694 104.400,29.053 104.400 C 29.412 104.400,29.997 104.083,30.353 103.696 C 30.709 103.308,31.675 102.489,32.500 101.875 C 33.325 101.261,34.000 100.538,34.000 100.268 C 34.000 99.998,34.360 99.517,34.800 99.200 C 35.240 98.883,35.604 98.438,35.609 98.212 C 35.614 97.985,35.970 97.350,36.400 96.800 C 36.830 96.250,37.186 95.395,37.191 94.900 C 37.196 94.405,37.380 94.000,37.600 94.000 C 37.820 94.000,38.000 93.381,38.000 92.624 C 38.000 91.867,38.180 91.136,38.400 91.000 C 38.658 90.840,38.800 83.327,38.800 69.770 C 38.800 49.295,38.998 45.600,40.097 45.600 C 40.264 45.600,40.400 45.322,40.400 44.983 C 40.400 44.339,40.806 43.755,42.281 42.281 C 43.755 40.806,44.339 40.400,44.983 40.400 C 45.322 40.400,45.600 40.264,45.600 40.097 C 45.600 38.998,49.295 38.800,69.770 38.800 C 83.327 38.800,90.840 38.658,91.000 38.400 C 91.136 38.180,91.867 38.000,92.624 38.000 C 93.381 38.000,94.000 37.843,94.000 37.650 C 94.000 37.458,94.518 37.196,95.152 37.070 C 95.785 36.943,96.582 36.560,96.923 36.220 C 97.264 35.879,97.786 35.600,98.083 35.600 C 98.380 35.600,98.883 35.240,99.200 34.800 C 99.517 34.360,99.998 34.000,100.268 34.000 C 100.538 34.000,101.261 33.325,101.875 32.500 C 102.489 31.675,103.308 30.709,103.696 30.353 C 104.083 29.997,104.400 29.412,104.400 29.053 C 104.400 28.694,104.580 28.400,104.800 28.400 C 105.020 28.400,105.200 28.040,105.200 27.600 C 105.200 27.160,105.380 26.800,105.600 26.800 C 105.820 26.800,106.000 26.361,106.000 25.824 C 106.000 25.287,106.180 24.736,106.400 24.600 C 106.636 24.454,106.800 22.070,106.800 18.800 C 106.800 15.530,106.636 13.146,106.400 13.000 C 106.180 12.864,106.000 12.401,106.000 11.971 C 106.000 11.151,105.347 9.808,104.500 8.887 C 104.225 8.588,104.000 8.186,104.000 7.994 C 104.000 7.438,99.510 3.057,98.300 2.432 C 97.695 2.120,97.200 1.715,97.200 1.532 C 97.200 1.350,96.855 1.200,96.433 1.200 C 96.012 1.200,95.592 0.975,95.500 0.700 C 95.340 0.220,45.209 -0.148,39.300 0.287 M304.900 0.278 C 304.185 0.373,303.600 0.619,303.600 0.825 C 303.600 1.031,303.280 1.200,302.888 1.200 C 302.497 1.200,301.917 1.560,301.600 2.000 C 301.283 2.440,300.783 2.800,300.490 2.800 C 299.909 2.800,295.200 7.424,295.200 7.994 C 295.200 8.186,294.975 8.581,294.700 8.871 C 294.117 9.488,293.495 10.822,292.855 12.828 C 292.290 14.602,292.245 24.257,292.800 24.600 C 293.020 24.736,293.200 25.287,293.200 25.824 C 293.200 26.361,293.380 26.800,293.600 26.800 C 293.820 26.800,294.000 27.160,294.000 27.600 C 294.000 28.040,294.180 28.400,294.400 28.400 C 294.620 28.400,294.800 28.688,294.800 29.040 C 294.800 29.391,295.340 30.183,296.000 30.800 C 296.660 31.417,297.200 32.098,297.200 32.314 C 297.200 32.531,297.695 33.029,298.300 33.421 C 298.905 33.813,299.691 34.464,300.047 34.867 C 300.403 35.270,300.988 35.600,301.347 35.600 C 301.706 35.600,302.001 35.735,302.003 35.900 C 302.007 36.259,303.944 37.200,304.680 37.200 C 304.966 37.200,305.200 37.380,305.200 37.600 C 305.200 37.820,305.920 38.000,306.800 38.000 C 307.680 38.000,308.400 38.180,308.400 38.400 C 308.400 38.662,315.933 38.800,330.200 38.800 C 344.467 38.800,352.000 38.938,352.000 39.200 C 352.000 39.420,352.540 39.600,353.200 39.600 C 353.860 39.600,354.400 39.758,354.400 39.951 C 354.400 40.145,354.935 40.525,355.590 40.796 C 357.809 41.715,360.400 45.530,360.400 47.879 C 360.400 48.385,360.580 48.800,360.800 48.800 C 361.062 48.800,361.200 56.333,361.200 70.600 C 361.200 84.867,361.338 92.400,361.600 92.400 C 361.820 92.400,362.000 92.940,362.000 93.600 C 362.000 94.260,362.180 94.800,362.400 94.800 C 362.620 94.800,362.800 95.160,362.800 95.600 C 362.800 96.040,362.980 96.400,363.200 96.400 C 363.420 96.400,363.600 96.760,363.600 97.200 C 363.600 97.640,363.750 98.000,363.932 98.000 C 364.115 98.000,364.520 98.495,364.832 99.100 C 365.452 100.301,368.260 103.200,368.804 103.200 C 368.990 103.200,369.388 103.425,369.687 103.700 C 370.537 104.482,371.930 105.200,372.595 105.200 C 372.928 105.200,373.200 105.336,373.200 105.503 C 373.200 107.244,387.315 107.219,389.059 105.474 C 389.210 105.323,389.624 105.200,389.978 105.200 C 390.333 105.200,390.883 104.840,391.200 104.400 C 391.517 103.960,392.011 103.600,392.297 103.600 C 392.975 103.600,397.200 99.375,397.200 98.697 C 397.200 98.411,397.560 97.917,398.000 97.600 C 398.440 97.283,398.800 96.718,398.800 96.345 C 398.800 95.972,399.025 95.592,399.300 95.500 C 399.977 95.275,400.251 44.150,399.598 40.097 C 398.805 35.185,398.715 34.800,398.356 34.800 C 398.160 34.800,398.000 34.260,398.000 33.600 C 398.000 32.940,397.820 32.400,397.600 32.400 C 397.380 32.400,397.200 32.051,397.200 31.624 C 397.200 31.197,397.020 30.736,396.800 30.600 C 396.580 30.464,396.400 29.913,396.400 29.376 C 396.400 28.839,396.264 28.400,396.098 28.400 C 395.931 28.400,395.540 27.815,395.228 27.100 C 394.916 26.385,394.332 25.509,393.930 25.153 C 393.529 24.797,393.200 24.212,393.200 23.853 C 393.200 23.494,393.020 23.200,392.800 23.200 C 392.580 23.200,392.400 22.917,392.400 22.571 C 392.400 22.226,392.175 21.692,391.900 21.385 C 390.718 20.067,390.400 19.610,390.400 19.230 C 390.400 18.702,381.298 9.600,380.770 9.600 C 380.390 9.600,379.933 9.282,378.615 8.100 C 378.308 7.825,377.774 7.600,377.429 7.600 C 377.083 7.600,376.800 7.420,376.800 7.200 C 376.800 6.980,376.480 6.800,376.088 6.800 C 375.697 6.800,375.117 6.440,374.800 6.000 C 374.483 5.560,373.903 5.200,373.512 5.200 C 373.120 5.200,372.800 5.020,372.800 4.800 C 372.800 4.580,372.440 4.400,372.000 4.400 C 371.560 4.400,371.200 4.220,371.200 4.000 C 371.200 3.780,370.750 3.600,370.200 3.600 C 369.650 3.600,369.200 3.420,369.200 3.200 C 369.200 2.980,368.840 2.800,368.400 2.800 C 367.960 2.800,367.600 2.620,367.600 2.400 C 367.600 2.180,367.060 2.000,366.400 2.000 C 365.740 2.000,365.200 1.820,365.200 1.600 C 365.200 1.380,364.495 1.200,363.633 1.200 C 362.735 1.200,361.996 0.987,361.900 0.700 C 361.738 0.213,308.366 -0.182,304.900 0.278 M12.600 292.887 C 10.452 293.638,9.412 294.182,8.753 294.897 C 8.397 295.284,7.898 295.600,7.644 295.600 C 7.009 295.600,2.800 299.860,2.800 300.503 C 2.800 300.789,2.440 301.283,2.000 301.600 C 1.560 301.917,1.200 302.482,1.200 302.855 C 1.200 303.228,0.975 303.608,0.700 303.700 C -0.033 303.944,-0.033 361.656,0.700 361.900 C 0.987 361.996,1.200 362.736,1.200 363.633 C 1.200 364.495,1.380 365.200,1.600 365.200 C 1.820 365.200,2.000 365.740,2.000 366.400 C 2.000 367.060,2.180 367.600,2.400 367.600 C 2.620 367.600,2.800 367.960,2.800 368.400 C 2.800 368.840,2.980 369.200,3.200 369.200 C 3.420 369.200,3.600 369.650,3.600 370.200 C 3.600 370.750,3.780 371.200,4.000 371.200 C 4.220 371.200,4.400 371.560,4.400 372.000 C 4.400 372.440,4.580 372.800,4.800 372.800 C 5.020 372.800,5.200 373.120,5.200 373.512 C 5.200 373.903,5.560 374.483,6.000 374.800 C 6.440 375.117,6.800 375.697,6.800 376.088 C 6.800 376.480,6.980 376.800,7.200 376.800 C 7.420 376.800,7.600 377.078,7.600 377.417 C 7.600 377.756,7.783 378.251,8.007 378.517 C 9.564 380.363,10.000 380.964,10.000 381.264 C 10.000 381.750,18.757 390.400,19.249 390.400 C 19.474 390.400,19.908 390.625,20.215 390.900 C 21.602 392.144,22.006 392.400,22.583 392.400 C 22.922 392.400,23.200 392.580,23.200 392.800 C 23.200 393.020,23.494 393.200,23.853 393.200 C 24.212 393.200,24.797 393.529,25.153 393.930 C 25.509 394.332,26.385 394.916,27.100 395.228 C 27.815 395.540,28.400 395.931,28.400 396.098 C 28.400 396.264,28.839 396.400,29.376 396.400 C 29.913 396.400,30.464 396.580,30.600 396.800 C 30.736 397.020,31.197 397.200,31.624 397.200 C 32.051 397.200,32.400 397.380,32.400 397.600 C 32.400 397.820,32.940 398.000,33.600 398.000 C 34.260 398.000,34.800 398.160,34.800 398.356 C 34.800 398.715,35.185 398.805,40.097 399.598 C 44.150 400.251,95.275 399.977,95.500 399.300 C 95.592 399.025,95.972 398.800,96.345 398.800 C 96.718 398.800,97.283 398.440,97.600 398.000 C 97.917 397.560,98.411 397.200,98.697 397.200 C 99.375 397.200,103.600 392.975,103.600 392.297 C 103.600 392.011,103.960 391.517,104.400 391.200 C 104.840 390.883,105.200 390.333,105.200 389.978 C 105.200 389.624,105.323 389.210,105.474 389.059 C 107.219 387.315,107.244 373.200,105.503 373.200 C 105.336 373.200,105.200 372.928,105.200 372.595 C 105.200 371.930,104.482 370.537,103.700 369.687 C 103.425 369.388,103.200 368.990,103.200 368.804 C 103.200 368.260,100.301 365.452,99.100 364.832 C 98.495 364.520,98.000 364.115,98.000 363.932 C 98.000 363.750,97.640 363.600,97.200 363.600 C 96.760 363.600,96.400 363.420,96.400 363.200 C 96.400 362.980,96.040 362.800,95.600 362.800 C 95.160 362.800,94.800 362.620,94.800 362.400 C 94.800 362.180,94.260 362.000,93.600 362.000 C 92.940 362.000,92.400 361.820,92.400 361.600 C 92.400 361.338,84.867 361.200,70.600 361.200 C 56.333 361.200,48.800 361.062,48.800 360.800 C 48.800 360.580,48.271 360.400,47.624 360.400 C 46.977 360.400,46.334 360.217,46.196 359.993 C 46.058 359.770,45.798 359.678,45.618 359.789 C 45.438 359.900,45.068 359.723,44.796 359.396 C 44.524 359.068,44.062 358.800,43.769 358.800 C 43.005 358.800,41.428 357.115,40.821 355.652 C 40.536 354.963,40.145 354.400,39.951 354.400 C 39.758 354.400,39.600 353.860,39.600 353.200 C 39.600 352.540,39.420 352.000,39.200 352.000 C 38.938 352.000,38.800 344.467,38.800 330.200 C 38.800 315.933,38.662 308.400,38.400 308.400 C 38.180 308.400,38.000 307.680,38.000 306.800 C 38.000 305.920,37.820 305.200,37.600 305.200 C 37.380 305.200,37.200 304.966,37.200 304.680 C 37.200 303.944,36.259 302.007,35.900 302.003 C 35.735 302.001,35.600 301.706,35.600 301.347 C 35.600 300.988,35.270 300.403,34.867 300.047 C 34.464 299.691,33.813 298.905,33.421 298.300 C 33.029 297.695,32.531 297.200,32.314 297.200 C 32.098 297.200,31.417 296.660,30.800 296.000 C 30.183 295.340,29.391 294.800,29.040 294.800 C 28.688 294.800,28.400 294.620,28.400 294.400 C 28.400 294.180,28.040 294.000,27.600 294.000 C 27.160 294.000,26.800 293.809,26.800 293.576 C 26.800 293.343,26.652 293.244,26.471 293.356 C 26.291 293.468,25.676 293.317,25.106 293.021 C 23.836 292.362,14.392 292.261,12.600 292.887 M374.500 292.939 C 373.785 293.174,373.200 293.508,373.200 293.683 C 373.200 293.857,372.928 294.000,372.595 294.000 C 371.886 294.000,370.570 294.711,369.445 295.700 C 369.007 296.085,368.497 296.400,368.311 296.400 C 367.768 296.400,365.200 299.123,365.200 299.698 C 365.200 299.987,364.840 300.483,364.400 300.800 C 363.960 301.117,363.600 301.697,363.600 302.088 C 363.600 302.480,363.420 302.800,363.200 302.800 C 362.980 302.800,362.800 303.160,362.800 303.600 C 362.800 304.040,362.620 304.400,362.400 304.400 C 362.180 304.400,362.000 304.940,362.000 305.600 C 362.000 306.260,361.823 306.800,361.607 306.800 C 361.356 306.800,361.160 314.715,361.066 328.700 C 360.926 349.653,360.750 353.600,359.956 353.600 C 359.760 353.600,359.600 353.878,359.600 354.217 C 359.600 354.901,359.206 355.437,357.322 357.322 C 355.437 359.206,354.901 359.600,354.217 359.600 C 353.878 359.600,353.600 359.760,353.600 359.956 C 353.600 360.750,349.653 360.926,328.700 361.066 C 314.715 361.160,306.800 361.356,306.800 361.607 C 306.800 361.823,306.260 362.000,305.600 362.000 C 304.940 362.000,304.400 362.180,304.400 362.400 C 304.400 362.620,304.040 362.800,303.600 362.800 C 303.160 362.800,302.800 362.980,302.800 363.200 C 302.800 363.420,302.480 363.600,302.088 363.600 C 301.697 363.600,301.117 363.960,300.800 364.400 C 300.483 364.840,299.979 365.200,299.680 365.200 C 299.100 365.200,296.000 368.236,296.000 368.804 C 296.000 368.990,295.775 369.388,295.500 369.687 C 294.718 370.537,294.000 371.930,294.000 372.595 C 294.000 372.928,293.864 373.200,293.697 373.200 C 291.956 373.200,291.981 387.315,293.726 389.059 C 293.877 389.210,294.000 389.624,294.000 389.978 C 294.000 390.333,294.360 390.883,294.800 391.200 C 295.240 391.517,295.600 392.011,295.600 392.297 C 295.600 392.583,296.586 393.803,297.791 395.009 C 298.997 396.214,300.217 397.200,300.503 397.200 C 300.789 397.200,301.283 397.560,301.600 398.000 C 301.917 398.440,302.482 398.800,302.855 398.800 C 303.228 398.800,303.608 399.025,303.700 399.300 C 303.831 399.694,310.009 399.800,332.800 399.800 C 355.591 399.800,361.769 399.694,361.900 399.300 C 361.996 399.013,362.736 398.800,363.633 398.800 C 364.495 398.800,365.200 398.620,365.200 398.400 C 365.200 398.180,365.740 398.000,366.400 398.000 C 367.060 398.000,367.600 397.820,367.600 397.600 C 367.600 397.380,367.960 397.200,368.400 397.200 C 368.840 397.200,369.200 397.020,369.200 396.800 C 369.200 396.580,369.560 396.400,370.000 396.400 C 370.440 396.400,370.800 396.220,370.800 396.000 C 370.800 395.780,371.034 395.600,371.320 395.600 C 372.056 395.600,373.993 394.659,373.997 394.300 C 373.999 394.135,374.270 394.000,374.600 394.000 C 374.930 394.000,375.200 393.820,375.200 393.600 C 375.200 393.380,375.520 393.200,375.912 393.200 C 376.303 393.200,376.883 392.840,377.200 392.400 C 377.517 391.960,378.069 391.600,378.427 391.600 C 378.785 391.600,379.493 391.240,380.000 390.800 C 380.507 390.360,381.069 390.000,381.247 390.000 C 381.666 390.000,389.600 382.130,389.600 381.714 C 389.601 381.541,390.051 380.877,390.600 380.238 C 391.150 379.599,391.600 378.783,391.600 378.426 C 391.600 378.069,391.960 377.517,392.400 377.200 C 392.840 376.883,393.200 376.303,393.200 375.912 C 393.200 375.520,393.380 375.200,393.600 375.200 C 393.820 375.200,394.000 374.930,394.000 374.600 C 394.000 374.270,394.180 374.000,394.400 374.000 C 394.620 374.000,394.800 373.730,394.800 373.400 C 394.800 373.070,394.980 372.800,395.200 372.800 C 395.420 372.800,395.600 372.451,395.600 372.024 C 395.600 371.597,395.780 371.136,396.000 371.000 C 396.220 370.864,396.400 370.403,396.400 369.976 C 396.400 369.549,396.580 369.200,396.800 369.200 C 397.020 369.200,397.200 368.840,397.200 368.400 C 397.200 367.960,397.380 367.600,397.600 367.600 C 397.820 367.600,398.000 367.060,398.000 366.400 C 398.000 365.740,398.180 365.200,398.400 365.200 C 398.620 365.200,398.800 364.495,398.800 363.633 C 398.800 362.736,399.013 361.996,399.300 361.900 C 399.694 361.769,399.800 355.591,399.800 332.800 C 399.800 310.009,399.694 303.831,399.300 303.700 C 399.025 303.608,398.800 303.228,398.800 302.855 C 398.800 302.482,398.440 301.917,398.000 301.600 C 397.560 301.283,397.200 300.789,397.200 300.503 C 397.200 299.825,392.975 295.600,392.297 295.600 C 392.011 295.600,391.517 295.240,391.200 294.800 C 390.883 294.360,390.333 294.000,389.978 294.000 C 389.624 294.000,389.210 293.877,389.059 293.726 C 387.798 292.465,377.622 291.915,374.500 292.939 " stroke="none" fill="#fc7418" fill-rule="evenodd"></path><path id="path2" d="M85.600 69.600 C 85.600 69.820,85.161 70.000,84.624 70.000 C 84.087 70.000,83.536 70.180,83.400 70.400 C 83.264 70.620,82.803 70.800,82.376 70.800 C 81.949 70.800,81.600 70.980,81.600 71.200 C 81.600 71.420,81.240 71.600,80.800 71.600 C 80.360 71.600,80.000 71.780,80.000 72.000 C 80.000 72.220,79.610 72.400,79.133 72.400 C 78.657 72.400,78.386 72.519,78.531 72.665 C 78.677 72.810,78.122 73.385,77.298 73.942 C 75.569 75.112,75.549 75.132,73.298 77.856 C 72.364 78.986,71.600 80.111,71.600 80.356 C 71.600 80.600,71.420 80.800,71.200 80.800 C 70.980 80.800,70.800 81.160,70.800 81.600 C 70.800 82.040,70.620 82.400,70.400 82.400 C 70.180 82.400,70.000 82.749,70.000 83.176 C 70.000 83.603,69.820 84.064,69.600 84.200 C 69.380 84.336,69.200 84.797,69.200 85.224 C 69.200 85.651,69.380 86.000,69.600 86.000 C 69.820 86.000,70.000 85.550,70.000 85.000 C 70.000 84.450,70.180 84.000,70.400 84.000 C 70.620 84.000,70.800 83.640,70.800 83.200 C 70.800 82.760,70.980 82.400,71.200 82.400 C 71.420 82.400,71.600 82.130,71.600 81.800 C 71.600 81.470,71.780 81.200,72.000 81.200 C 72.220 81.200,72.400 80.927,72.400 80.594 C 72.400 79.924,78.145 74.000,78.794 74.000 C 79.017 74.000,79.200 73.820,79.200 73.600 C 79.200 73.380,79.470 73.200,79.800 73.200 C 80.130 73.200,80.400 73.020,80.400 72.800 C 80.400 72.580,80.760 72.400,81.200 72.400 C 81.640 72.400,82.000 72.220,82.000 72.000 C 82.000 71.780,82.349 71.600,82.776 71.600 C 83.203 71.600,83.664 71.420,83.800 71.200 C 83.936 70.980,84.487 70.800,85.024 70.800 C 85.561 70.800,86.000 70.620,86.000 70.400 C 86.000 70.180,86.799 70.000,87.776 70.000 C 88.753 70.000,89.664 69.820,89.800 69.600 C 89.953 69.352,89.204 69.200,87.824 69.200 C 86.601 69.200,85.600 69.380,85.600 69.600 M198.617 69.572 C 198.491 69.777,198.570 70.058,198.793 70.196 C 199.066 70.365,199.200 92.975,199.200 138.935 L 199.200 207.423 196.560 210.012 C 192.091 214.394,184.541 223.430,183.201 226.000 C 182.915 226.550,182.565 227.090,182.425 227.200 C 181.547 227.888,176.729 236.860,174.638 241.700 C 173.472 244.399,173.471 244.399,171.400 242.579 C 167.288 238.966,161.007 234.924,155.200 232.154 C 149.453 229.413,146.226 228.146,142.400 227.128 C 141.630 226.923,140.370 226.580,139.600 226.367 C 130.655 223.888,114.221 223.402,105.800 225.367 C 98.383 227.097,96.768 227.535,94.600 228.400 C 94.160 228.576,93.170 228.939,92.400 229.207 C 85.793 231.506,77.000 236.508,71.100 241.324 L 69.200 242.874 69.200 276.837 C 69.200 299.212,69.064 310.800,68.800 310.800 C 68.357 310.800,68.428 311.672,68.900 312.024 C 69.065 312.146,69.229 313.001,69.265 313.924 C 69.302 314.846,69.482 315.600,69.666 315.600 C 69.850 315.600,69.956 315.735,69.901 315.900 C 69.734 316.411,70.908 319.600,71.264 319.600 C 71.449 319.600,71.600 319.825,71.601 320.100 C 71.601 320.375,72.155 321.230,72.831 322.000 C 73.506 322.770,74.337 323.805,74.676 324.300 C 75.015 324.795,75.522 325.200,75.803 325.200 C 76.084 325.200,76.410 325.450,76.528 325.756 C 76.645 326.062,77.249 326.569,77.871 326.882 C 78.492 327.196,79.405 327.666,79.900 327.926 C 82.011 329.037,82.429 329.200,83.171 329.200 C 83.601 329.200,84.064 329.380,84.200 329.600 C 84.363 329.864,104.038 330.000,141.924 330.000 L 199.400 330.000 199.296 269.057 L 199.192 208.114 203.296 204.921 C 210.426 199.374,216.810 195.564,224.600 192.208 C 225.480 191.829,226.560 191.364,227.000 191.175 C 228.475 190.540,236.582 187.899,238.200 187.526 C 252.836 184.146,264.364 183.645,277.888 185.800 C 294.698 188.479,312.140 196.789,325.080 208.286 C 326.883 209.889,328.548 211.200,328.780 211.200 C 329.352 211.200,329.373 86.954,328.800 86.600 C 328.580 86.464,328.400 85.924,328.400 85.400 C 328.400 84.876,328.220 84.336,328.000 84.200 C 327.780 84.064,327.600 83.603,327.600 83.176 C 327.600 82.749,327.420 82.400,327.200 82.400 C 326.980 82.400,326.800 82.040,326.800 81.600 C 326.800 81.160,326.664 80.800,326.498 80.800 C 326.331 80.800,325.975 80.305,325.706 79.700 C 324.828 77.730,319.296 72.425,318.100 72.407 C 317.825 72.403,317.600 72.220,317.600 72.000 C 317.600 71.780,317.240 71.600,316.800 71.600 C 316.360 71.600,316.000 71.420,316.000 71.200 C 316.000 70.980,315.640 70.800,315.200 70.800 C 314.760 70.800,314.400 70.620,314.400 70.400 C 314.400 70.180,313.871 70.000,313.224 70.000 C 312.577 70.000,311.936 69.820,311.800 69.600 C 311.474 69.072,198.943 69.044,198.617 69.572 M68.467 87.833 C 68.406 88.740,68.523 89.171,68.785 89.009 C 69.268 88.711,69.353 86.400,68.882 86.400 C 68.707 86.400,68.520 87.045,68.467 87.833 " stroke="none" fill="#57a5e6" fill-rule="evenodd"></path><path id="path3" d="M89.800 69.600 C 89.664 69.820,88.753 70.000,87.776 70.000 C 86.799 70.000,86.000 70.180,86.000 70.400 C 86.000 70.620,85.561 70.800,85.024 70.800 C 84.487 70.800,83.936 70.980,83.800 71.200 C 83.664 71.420,83.203 71.600,82.776 71.600 C 82.349 71.600,82.000 71.780,82.000 72.000 C 82.000 72.220,81.640 72.400,81.200 72.400 C 80.760 72.400,80.400 72.580,80.400 72.800 C 80.400 73.020,80.130 73.200,79.800 73.200 C 79.470 73.200,79.200 73.380,79.200 73.600 C 79.200 73.820,79.017 74.000,78.794 74.000 C 78.145 74.000,72.400 79.924,72.400 80.594 C 72.400 80.927,72.220 81.200,72.000 81.200 C 71.780 81.200,71.600 81.470,71.600 81.800 C 71.600 82.130,71.420 82.400,71.200 82.400 C 70.980 82.400,70.800 82.760,70.800 83.200 C 70.800 83.640,70.620 84.000,70.400 84.000 C 70.180 84.000,70.000 84.450,70.000 85.000 C 70.000 85.550,69.820 86.000,69.600 86.000 C 69.380 86.000,69.200 86.619,69.200 87.376 C 69.200 88.133,69.020 88.864,68.800 89.000 C 68.535 89.164,68.400 126.604,68.400 200.024 C 68.400 273.608,68.534 310.800,68.800 310.800 C 69.064 310.800,69.200 299.212,69.200 276.837 L 69.200 242.874 71.100 241.324 C 77.000 236.508,85.793 231.506,92.400 229.207 C 93.170 228.939,94.160 228.576,94.600 228.400 C 96.768 227.535,98.383 227.097,105.800 225.367 C 114.264 223.392,130.541 223.883,139.700 226.389 C 140.525 226.615,141.785 226.958,142.500 227.150 C 146.284 228.169,149.508 229.440,155.200 232.154 C 161.007 234.924,167.288 238.966,171.400 242.579 C 173.471 244.399,173.472 244.399,174.638 241.700 C 176.729 236.860,181.547 227.888,182.425 227.200 C 182.565 227.090,182.915 226.550,183.201 226.000 C 184.541 223.430,192.091 214.394,196.560 210.012 L 199.200 207.423 199.200 138.935 C 199.200 92.975,199.066 70.365,198.793 70.196 C 198.570 70.058,198.491 69.777,198.617 69.572 C 198.759 69.343,177.920 69.200,144.447 69.200 C 108.612 69.200,89.963 69.337,89.800 69.600 M146.826 107.029 C 185.065 114.283,199.132 160.051,171.357 186.845 C 161.226 196.618,144.829 201.974,132.320 199.597 C 125.556 198.312,122.504 197.348,117.600 194.948 C 89.449 181.173,82.731 143.651,104.371 121.055 C 111.633 113.472,119.536 109.290,131.200 106.861 C 134.189 106.238,143.166 106.335,146.826 107.029 " stroke="none" fill="#9ccbfb" fill-rule="evenodd"></path><path id="path4" d="M131.200 106.861 C 112.993 110.653,100.952 120.505,94.416 136.958 C 84.286 162.461,100.967 192.980,128.200 198.769 C 133.126 199.816,134.701 200.000,138.720 199.993 C 177.159 199.926,199.651 155.769,176.710 125.411 C 166.235 111.549,146.774 103.616,131.200 106.861 " stroke="none" fill="#fcc494" fill-rule="evenodd"></path></g></svg>