<svg id="svg" version="1.1" xmlns="http://www.w3.org/2000/svg" xmlns:xlink="http://www.w3.org/1999/xlink" width="400" height="400" viewBox="0, 0, 400,400"><g id="svgg"><path id="path0" d="M103.110 176.082 C 99.846 177.974,99.995 176.231,100.040 212.096 C 100.066 232.577,100.212 243.238,100.452 242.213 C 100.656 241.341,101.223 240.198,101.712 239.675 C 103.685 237.562,103.258 237.600,125.026 237.600 C 152.087 237.600,150.000 236.307,150.000 253.077 C 150.000 265.599,149.704 266.696,145.881 268.324 C 143.657 269.271,105.509 268.974,103.590 267.995 C 101.839 267.102,100.850 265.834,100.388 263.890 C 100.217 263.167,100.064 266.893,100.041 272.374 C 99.995 283.335,100.270 284.669,102.924 286.369 C 103.626 286.819,104.020 287.213,103.800 287.246 C 103.580 287.279,104.030 287.417,104.800 287.553 L 106.200 287.800 106.303 309.344 C 106.451 340.031,108.066 337.721,86.600 337.522 C 67.023 337.341,68.800 340.101,68.800 309.874 L 68.800 287.600 58.591 287.600 C 48.390 287.600,48.382 287.601,46.881 288.594 C 43.508 290.826,43.800 285.616,43.800 343.600 C 43.800 401.423,43.548 396.800,46.821 398.966 L 48.383 400.000 93.291 399.989 L 138.200 399.977 139.979 399.068 C 141.229 398.428,142.006 397.665,142.593 396.499 C 143.327 395.041,143.485 394.922,143.890 395.520 C 144.252 396.053,144.270 395.897,143.976 394.803 C 143.459 392.879,143.472 294.021,143.990 292.526 C 144.291 291.657,144.277 291.547,143.927 292.044 C 143.538 292.598,143.355 292.462,142.621 291.075 C 142.086 290.062,141.187 289.160,140.205 288.651 L 138.643 287.840 140.021 287.482 C 140.780 287.286,142.840 287.219,144.600 287.334 C 146.360 287.449,150.680 287.555,154.200 287.570 L 160.600 287.598 159.600 288.390 C 159.050 288.826,158.498 289.186,158.374 289.191 C 158.249 289.196,157.760 289.889,157.286 290.732 L 156.425 292.264 156.318 343.632 L 156.211 395.000 157.153 396.653 C 157.674 397.569,158.766 398.683,159.602 399.153 L 161.109 400.000 205.944 400.000 L 250.779 400.000 252.489 399.060 C 253.608 398.445,254.496 397.548,255.055 396.466 L 255.910 394.812 256.567 395.706 L 257.223 396.600 256.809 395.721 C 256.528 395.125,256.427 378.226,256.497 343.241 C 256.561 311.188,256.458 291.782,256.226 292.014 C 255.993 292.247,255.538 291.836,255.026 290.930 C 254.555 290.098,253.517 289.118,252.612 288.651 C 251.070 287.854,251.053 287.822,252.012 287.555 C 254.597 286.835,260.625 287.273,260.137 288.145 C 259.988 288.412,260.106 288.393,260.421 288.100 C 260.802 287.746,262.712 287.600,266.952 287.600 L 272.944 287.600 271.347 288.967 C 268.741 291.197,268.847 289.356,268.717 334.600 C 268.652 357.260,268.689 370.940,268.799 365.000 C 268.910 359.060,269.162 353.930,269.360 353.600 C 271.544 349.955,271.240 349.999,293.949 350.007 L 313.800 350.013 315.392 350.915 C 318.596 352.729,318.786 353.542,318.793 365.451 C 318.801 377.827,318.532 378.893,314.926 380.750 C 313.055 381.714,273.642 381.344,272.007 380.348 C 270.338 379.330,269.731 378.596,269.241 377.000 C 268.991 376.185,268.861 378.835,268.836 385.251 C 268.797 395.393,268.985 396.591,270.865 398.200 C 273.055 400.074,271.097 400.000,318.357 400.000 L 363.124 400.000 364.804 399.104 C 366.640 398.123,367.630 396.930,368.339 394.840 C 369.053 392.734,368.981 294.354,368.264 292.295 C 366.693 287.784,365.854 287.600,346.854 287.600 L 331.200 287.600 331.200 310.046 C 331.200 340.245,333.134 337.400,312.600 337.400 C 296.931 337.400,296.907 337.396,294.901 334.419 L 294.000 333.082 294.000 310.341 L 294.000 287.600 300.325 287.600 C 307.165 287.600,308.768 287.217,310.645 285.137 C 312.423 283.164,312.401 283.874,312.389 231.040 L 312.377 180.600 311.468 178.821 C 309.622 175.212,309.556 175.200,290.937 175.200 L 274.800 175.200 274.800 197.640 C 274.800 227.681,276.893 224.553,256.680 224.714 C 235.592 224.883,237.600 227.750,237.600 197.474 L 237.600 175.200 227.259 175.200 C 215.638 175.200,215.249 175.290,213.422 178.401 C 212.604 179.793,212.600 180.070,212.600 231.200 C 212.600 288.968,212.376 284.727,215.510 286.407 C 216.208 286.782,216.663 287.203,216.523 287.344 C 216.382 287.485,216.841 287.600,217.543 287.600 L 218.819 287.600 218.710 310.100 C 218.563 340.189,220.425 337.339,200.800 337.520 C 179.562 337.716,181.200 340.055,181.200 309.540 L 181.200 287.600 187.604 287.600 C 195.388 287.600,199.200 286.166,199.200 283.238 C 199.200 282.656,199.716 282.683,200.369 283.300 C 200.805 283.712,200.819 283.646,200.449 282.926 C 199.833 281.728,199.807 180.747,200.422 179.474 C 200.810 178.671,200.797 178.658,200.268 179.313 C 199.732 179.978,199.639 179.923,198.915 178.529 C 197.215 175.253,196.891 175.200,178.537 175.200 L 162.400 175.200 162.400 197.646 C 162.400 227.639,164.474 224.555,144.200 224.709 C 127.921 224.833,127.864 224.823,126.107 221.758 L 125.213 220.200 125.207 197.700 L 125.200 175.200 114.900 175.209 C 105.082 175.218,104.530 175.259,103.110 176.082 M259.146 238.427 C 262.214 240.172,262.186 240.045,262.318 252.714 C 262.499 270.164,264.614 268.801,237.374 268.798 L 217.400 268.796 215.878 267.875 C 212.804 266.013,212.806 266.023,212.803 253.193 L 212.800 241.786 213.771 240.357 C 215.677 237.553,215.099 237.619,237.546 237.609 C 257.184 237.600,257.728 237.621,259.146 238.427 M31.394 343.800 C 31.394 371.740,31.442 383.111,31.500 369.069 C 31.558 355.027,31.558 332.167,31.500 318.269 C 31.442 304.371,31.394 315.860,31.394 343.800 M90.174 350.806 C 93.407 352.408,93.385 352.313,93.517 365.325 C 93.694 382.636,95.932 381.200,68.776 381.200 C 46.406 381.200,46.882 381.255,44.976 378.450 L 44.000 377.014 44.000 365.801 C 44.000 352.971,44.089 352.558,47.205 350.910 L 48.926 350.000 68.737 350.000 C 87.790 350.000,88.610 350.031,90.174 350.806 M203.026 350.994 C 206.249 352.883,206.457 353.834,206.319 366.096 L 206.200 376.661 205.136 378.268 C 203.144 381.276,203.764 381.200,181.194 381.200 C 154.304 381.200,156.654 382.637,156.482 366.086 C 156.301 348.636,154.190 350.001,181.365 350.000 L 201.330 350.000 203.026 350.994 " stroke="none" fill="#fbd577" fill-rule="evenodd"></path><path id="path1" d="M229.800 12.593 C 226.825 13.935,224.793 14.800,224.616 14.800 C 224.510 14.800,223.473 15.234,222.312 15.765 C 221.150 16.296,218.760 17.302,217.000 18.001 C 215.240 18.699,213.080 19.598,212.200 19.996 C 211.320 20.395,209.070 21.350,207.200 22.117 C 205.330 22.885,200.920 24.724,197.400 26.203 C 193.880 27.683,189.470 29.519,187.600 30.285 C 185.730 31.051,183.250 32.110,182.088 32.638 C 180.927 33.167,179.890 33.600,179.784 33.600 C 179.678 33.600,178.738 33.981,177.696 34.447 C 174.489 35.878,173.480 36.306,171.200 37.200 C 169.990 37.674,168.460 38.308,167.800 38.608 C 167.140 38.907,164.350 40.080,161.600 41.213 C 158.850 42.347,155.430 43.776,154.000 44.389 C 152.570 45.002,149.780 46.174,147.800 46.993 C 145.820 47.812,143.437 48.824,142.504 49.241 C 141.572 49.659,140.722 50.000,140.616 50.000 C 140.510 50.000,139.473 50.433,138.312 50.962 C 137.150 51.490,134.670 52.548,132.800 53.311 C 127.512 55.468,109.988 62.806,108.168 63.624 C 107.270 64.028,105.575 64.737,104.400 65.200 C 103.225 65.663,101.515 66.383,100.600 66.800 C 99.685 67.217,97.975 67.937,96.800 68.400 C 95.625 68.863,93.930 69.575,93.032 69.982 C 92.135 70.389,89.870 71.348,88.000 72.114 C 86.130 72.880,81.720 74.717,78.200 76.197 C 74.680 77.676,70.270 79.515,68.400 80.283 C 66.530 81.050,64.265 82.011,63.368 82.418 C 62.470 82.825,60.760 83.542,59.568 84.010 C 58.375 84.479,56.770 85.137,56.000 85.472 C 55.230 85.807,54.240 86.238,53.800 86.429 C 51.760 87.316,44.155 90.493,40.000 92.195 C 30.336 96.153,31.195 93.018,31.220 124.226 L 31.240 149.400 32.067 147.693 C 32.523 146.755,33.459 145.585,34.147 145.093 L 35.400 144.200 199.537 144.099 C 351.762 144.004,363.775 144.045,365.072 144.661 C 365.842 145.026,366.950 146.049,367.536 146.933 L 368.600 148.542 368.702 274.271 L 368.805 400.000 382.989 400.000 L 397.173 400.000 398.587 398.587 L 400.000 397.173 400.000 240.641 L 400.000 84.108 398.900 82.890 C 397.829 81.703,394.779 80.000,393.725 80.000 C 393.436 80.000,393.200 79.820,393.200 79.600 C 393.200 79.380,392.878 79.200,392.485 79.200 C 392.091 79.200,391.063 78.840,390.200 78.400 C 389.337 77.960,388.399 77.600,388.115 77.600 C 387.832 77.600,387.600 77.442,387.600 77.250 C 387.600 76.883,385.359 76.242,384.500 76.364 C 384.225 76.403,384.000 76.247,384.000 76.018 C 384.000 75.788,383.640 75.600,383.200 75.600 C 382.760 75.600,382.400 75.420,382.400 75.200 C 382.400 74.980,381.961 74.800,381.424 74.800 C 380.887 74.800,380.336 74.620,380.200 74.400 C 380.064 74.180,379.603 74.000,379.176 74.000 C 378.749 74.000,378.400 73.820,378.400 73.600 C 378.400 73.380,378.128 73.200,377.795 73.200 C 377.462 73.200,376.832 73.020,376.395 72.800 C 375.958 72.580,375.242 72.220,374.805 72.000 C 374.368 71.780,373.738 71.600,373.405 71.600 C 373.072 71.600,372.800 71.420,372.800 71.200 C 372.800 70.980,372.528 70.800,372.195 70.800 C 371.862 70.800,371.277 70.643,370.895 70.450 C 367.789 68.886,366.621 68.400,365.962 68.400 C 365.543 68.400,365.200 68.220,365.200 68.000 C 365.200 67.780,364.935 67.600,364.612 67.600 C 364.289 67.600,363.383 67.240,362.600 66.800 C 361.817 66.360,360.821 66.000,360.388 66.000 C 359.955 66.000,359.600 65.820,359.600 65.600 C 359.600 65.380,359.328 65.200,358.995 65.200 C 358.662 65.200,358.077 65.041,357.695 64.847 C 357.313 64.652,356.550 64.315,356.000 64.097 C 355.450 63.880,354.190 63.335,353.200 62.888 C 349.691 61.301,344.312 59.200,343.760 59.200 C 343.452 59.200,343.200 59.020,343.200 58.800 C 343.200 58.580,342.750 58.400,342.200 58.400 C 341.650 58.400,341.200 58.220,341.200 58.000 C 341.200 57.780,340.750 57.600,340.200 57.600 C 339.650 57.600,339.200 57.420,339.200 57.200 C 339.200 56.980,338.840 56.800,338.400 56.800 C 337.960 56.800,337.600 56.620,337.600 56.400 C 337.600 56.180,337.257 56.000,336.838 56.000 C 336.419 56.000,335.294 55.614,334.338 55.143 C 333.382 54.672,332.240 54.155,331.800 53.994 C 330.883 53.659,327.339 52.086,326.305 51.556 C 325.923 51.360,325.338 51.200,325.005 51.200 C 324.672 51.200,324.400 51.020,324.400 50.800 C 324.400 50.580,324.128 50.400,323.796 50.400 C 323.463 50.400,322.338 50.022,321.296 49.560 C 320.253 49.098,319.040 48.577,318.600 48.401 C 318.160 48.225,317.170 47.811,316.400 47.481 C 315.630 47.150,313.380 46.217,311.400 45.408 C 309.420 44.598,307.629 43.770,307.420 43.568 C 307.211 43.365,306.788 43.200,306.480 43.200 C 306.173 43.200,305.264 42.912,304.460 42.559 C 303.657 42.207,302.550 41.736,302.000 41.513 C 301.450 41.289,300.687 40.948,300.305 40.753 C 299.923 40.559,299.338 40.400,299.005 40.400 C 298.672 40.400,298.400 40.220,298.400 40.000 C 298.400 39.780,297.950 39.600,297.400 39.600 C 296.850 39.600,296.400 39.420,296.400 39.200 C 296.400 38.980,296.128 38.800,295.795 38.800 C 295.462 38.800,294.832 38.620,294.395 38.400 C 293.958 38.180,293.242 37.820,292.805 37.600 C 292.368 37.380,291.738 37.200,291.405 37.200 C 291.072 37.200,290.800 37.020,290.800 36.800 C 290.800 36.580,290.528 36.400,290.195 36.400 C 289.862 36.400,289.277 36.240,288.895 36.044 C 287.960 35.564,284.440 33.994,283.200 33.503 C 282.650 33.285,281.887 32.948,281.505 32.753 C 281.123 32.559,280.538 32.400,280.205 32.400 C 279.872 32.400,279.600 32.220,279.600 32.000 C 279.600 31.780,279.245 31.600,278.812 31.600 C 278.379 31.600,277.434 31.275,276.712 30.879 C 275.990 30.482,274.500 29.823,273.400 29.413 C 272.300 29.004,270.056 28.051,268.413 27.295 C 266.771 26.540,264.836 25.826,264.113 25.708 C 263.391 25.591,262.800 25.339,262.800 25.148 C 262.800 24.956,262.440 24.800,262.000 24.800 C 261.560 24.800,261.200 24.620,261.200 24.400 C 261.200 24.180,260.761 24.000,260.224 24.000 C 259.687 24.000,259.136 23.820,259.000 23.600 C 258.864 23.380,258.403 23.200,257.976 23.200 C 257.549 23.200,257.200 23.020,257.200 22.800 C 257.200 22.580,256.851 22.400,256.424 22.400 C 255.997 22.400,255.536 22.220,255.400 22.000 C 255.264 21.780,254.803 21.600,254.376 21.600 C 253.949 21.600,253.600 21.420,253.600 21.200 C 253.600 20.980,253.328 20.800,252.995 20.800 C 252.662 20.800,252.032 20.620,251.595 20.400 C 251.158 20.180,250.442 19.820,250.005 19.600 C 249.568 19.380,248.938 19.200,248.605 19.200 C 248.272 19.200,248.000 19.020,248.000 18.800 C 248.000 18.580,247.651 18.400,247.224 18.400 C 246.797 18.400,246.336 18.220,246.200 18.000 C 246.064 17.780,245.513 17.600,244.976 17.600 C 244.439 17.600,244.000 17.420,244.000 17.200 C 244.000 16.980,243.764 16.800,243.475 16.800 C 243.186 16.800,242.205 16.440,241.294 16.000 C 240.384 15.560,239.360 15.200,239.019 15.200 C 238.679 15.200,238.400 15.020,238.400 14.800 C 238.400 14.580,238.128 14.400,237.795 14.400 C 237.462 14.400,236.877 14.243,236.495 14.050 C 231.939 11.755,231.748 11.713,229.800 12.593 M246.977 57.181 C 250.881 59.755,250.927 64.906,247.071 67.763 C 245.708 68.773,156.712 69.327,154.200 68.341 C 149.240 66.395,148.619 59.887,153.143 57.263 L 154.600 56.418 200.200 56.412 C 244.660 56.405,245.829 56.425,246.977 57.181 M246.051 81.765 C 250.791 83.751,251.311 89.962,246.977 92.819 C 245.132 94.035,154.868 94.035,153.023 92.819 C 149.012 90.175,149.217 84.489,153.408 82.115 L 155.000 81.213 199.851 81.207 C 237.594 81.201,244.916 81.290,246.051 81.765 M246.977 107.181 C 250.881 109.755,250.927 114.906,247.071 117.763 C 245.708 118.773,156.712 119.327,154.200 118.341 C 149.240 116.395,148.619 109.887,153.143 107.263 L 154.600 106.418 200.200 106.412 C 244.660 106.405,245.829 106.425,246.977 107.181 M30.994 343.800 C 30.994 372.180,31.042 383.849,31.100 369.731 C 31.158 355.613,31.158 332.393,31.100 318.131 C 31.042 303.869,30.994 315.420,30.994 343.800 " stroke="none" fill="#53a4c7" fill-rule="evenodd"></path><path id="path2" d="M103.800 238.066 C 100.285 240.005,99.896 241.720,100.069 254.513 C 100.277 269.891,98.354 268.785,124.881 268.793 C 151.880 268.802,150.000 269.978,150.000 253.077 C 150.000 236.300,152.100 237.596,124.946 237.612 C 110.882 237.621,104.353 237.761,103.800 238.066 M216.071 238.273 C 215.340 238.633,214.305 239.571,213.771 240.357 L 212.800 241.786 212.803 253.193 C 212.806 266.023,212.804 266.013,215.878 267.875 L 217.400 268.796 237.374 268.798 C 264.614 268.801,262.499 270.164,262.318 252.714 C 262.145 236.158,264.505 237.597,237.546 237.609 C 219.707 237.617,217.248 237.693,216.071 238.273 M47.205 350.910 C 44.089 352.558,44.000 352.971,44.000 365.801 L 44.000 377.014 44.976 378.450 C 46.882 381.255,46.406 381.200,68.776 381.200 C 95.932 381.200,93.694 382.636,93.517 365.325 C 93.347 348.561,95.673 350.000,68.737 350.000 L 48.926 350.000 47.205 350.910 M159.769 350.808 C 156.491 352.430,156.347 353.100,156.482 366.086 C 156.654 382.637,154.304 381.200,181.194 381.200 C 203.764 381.200,203.144 381.276,205.136 378.268 L 206.200 376.661 206.319 366.096 C 206.457 353.834,206.249 352.883,203.026 350.994 L 201.330 350.000 181.365 350.000 C 162.147 350.001,161.339 350.031,159.769 350.808 M272.553 350.612 C 269.035 352.155,268.685 353.754,268.870 367.400 C 269.073 382.379,266.944 381.200,293.781 381.200 C 314.880 381.200,314.804 381.206,316.735 379.450 C 318.643 377.715,318.800 376.644,318.793 365.451 C 318.786 353.542,318.596 352.729,315.392 350.915 L 313.800 350.013 293.800 350.039 C 277.802 350.060,273.550 350.175,272.553 350.612 " stroke="none" fill="#f4ebeb" fill-rule="evenodd"></path><path id="path3" d="M90.710 176.082 C 87.358 178.025,87.600 173.725,87.600 231.333 L 87.600 282.274 88.521 284.016 C 90.073 286.951,91.832 287.600,98.239 287.600 C 103.856 287.600,104.665 287.365,102.813 286.271 C 99.806 284.495,100.000 288.282,100.000 231.269 C 100.000 173.733,99.758 178.025,103.110 176.082 L 104.600 175.218 98.400 175.218 C 92.774 175.218,92.062 175.298,90.710 176.082 M203.165 176.112 C 202.421 176.613,201.407 177.738,200.913 178.612 L 200.013 180.200 200.007 231.051 C 199.999 286.119,199.901 283.547,202.098 285.614 C 203.835 287.248,205.409 287.600,210.982 287.600 C 216.764 287.600,217.414 287.429,215.510 286.407 C 212.376 284.727,212.600 288.968,212.600 231.200 C 212.600 173.305,212.330 178.292,215.581 176.101 L 216.918 175.200 210.718 175.200 C 204.927 175.200,204.429 175.260,203.165 176.112 M34.910 288.437 C 31.283 290.232,31.600 284.957,31.600 343.587 C 31.600 401.275,31.379 396.953,34.437 398.977 C 35.986 400.002,36.123 400.019,42.107 399.910 L 48.200 399.800 46.743 398.894 C 43.565 396.918,43.800 401.332,43.800 343.600 L 43.800 292.200 44.733 290.700 C 45.246 289.875,45.786 289.196,45.933 289.191 C 46.080 289.186,46.650 288.830,47.200 288.400 L 48.200 287.618 42.400 287.609 C 37.310 287.602,36.393 287.703,34.910 288.437 M147.087 288.495 C 146.063 289.089,145.254 290.027,144.581 291.402 L 143.588 293.433 143.694 344.216 L 143.800 395.000 144.746 396.650 C 146.392 399.522,147.854 400.002,154.938 399.991 L 161.000 399.982 159.543 399.137 C 158.742 398.672,157.665 397.552,157.149 396.646 L 156.211 395.000 156.318 343.632 L 156.425 292.264 157.286 290.732 C 157.760 289.889,158.249 289.196,158.374 289.191 C 158.498 289.186,159.050 288.830,159.600 288.400 L 160.600 287.618 154.600 287.618 C 149.152 287.618,148.461 287.699,147.087 288.495 M260.103 288.175 C 259.609 288.448,258.826 289.015,258.362 289.435 C 256.302 291.298,256.399 288.609,256.419 343.680 C 256.441 401.349,256.183 396.688,259.476 398.897 L 261.153 400.021 267.276 399.911 C 271.311 399.838,273.127 399.677,272.600 399.440 C 271.270 398.843,269.966 397.479,269.307 396.000 C 268.752 394.754,268.691 389.017,268.753 343.723 C 268.829 287.400,268.641 291.179,271.481 288.838 L 272.982 287.600 266.991 287.639 C 263.040 287.665,260.695 287.847,260.103 288.175 " stroke="none" fill="#fbc41c" fill-rule="evenodd"></path><path id="path4" d="M195.800 0.244 C 195.064 0.427,192.367 1.592,190.705 2.444 C 190.323 2.640,189.738 2.800,189.405 2.800 C 189.072 2.800,188.800 2.980,188.800 3.200 C 188.800 3.420,188.440 3.600,188.000 3.600 C 187.560 3.600,187.200 3.780,187.200 4.000 C 187.200 4.220,186.660 4.400,186.000 4.400 C 185.340 4.400,184.800 4.580,184.800 4.800 C 184.800 5.020,184.440 5.200,184.000 5.200 C 183.560 5.200,183.200 5.380,183.200 5.600 C 183.200 5.820,182.840 6.000,182.400 6.000 C 181.960 6.000,181.600 6.180,181.600 6.400 C 181.600 6.620,181.161 6.800,180.624 6.800 C 180.087 6.800,179.536 6.980,179.400 7.200 C 179.264 7.420,178.803 7.600,178.376 7.600 C 177.949 7.600,177.600 7.780,177.600 8.000 C 177.600 8.220,177.251 8.400,176.824 8.400 C 176.397 8.400,175.934 8.583,175.796 8.807 C 175.658 9.030,175.382 9.113,175.184 8.990 C 174.985 8.867,174.398 9.045,173.879 9.385 C 173.361 9.725,172.816 9.882,172.668 9.735 C 172.521 9.587,172.400 9.677,172.400 9.933 C 172.400 10.190,171.961 10.400,171.424 10.400 C 170.887 10.400,170.336 10.580,170.200 10.800 C 170.064 11.020,169.603 11.200,169.176 11.200 C 168.749 11.200,168.400 11.380,168.400 11.600 C 168.400 11.820,168.051 12.000,167.624 12.000 C 167.197 12.000,166.736 12.180,166.600 12.400 C 166.464 12.620,165.913 12.800,165.376 12.800 C 164.839 12.800,164.400 12.980,164.400 13.200 C 164.400 13.420,164.119 13.600,163.776 13.600 C 163.433 13.600,163.241 13.743,163.349 13.917 C 163.456 14.091,162.972 14.277,162.272 14.330 C 161.573 14.382,160.940 14.600,160.867 14.813 C 160.793 15.026,160.514 15.200,160.246 15.200 C 159.537 15.200,157.607 16.149,157.603 16.500 C 157.601 16.665,157.060 16.800,156.400 16.800 C 155.740 16.800,155.200 16.980,155.200 17.200 C 155.200 17.420,154.840 17.600,154.400 17.600 C 153.960 17.600,153.600 17.780,153.600 18.000 C 153.600 18.220,153.161 18.400,152.624 18.400 C 152.087 18.400,151.536 18.580,151.400 18.800 C 151.264 19.020,150.803 19.200,150.376 19.200 C 149.949 19.200,149.600 19.380,149.600 19.600 C 149.600 19.820,149.240 20.000,148.800 20.000 C 148.360 20.000,148.000 20.180,148.000 20.400 C 148.000 20.620,147.661 20.800,147.246 20.800 C 146.400 20.800,144.316 21.783,144.587 22.054 C 144.683 22.150,144.283 22.268,143.699 22.317 C 143.114 22.365,142.456 22.584,142.238 22.802 C 142.019 23.021,141.516 23.200,141.120 23.200 C 140.724 23.200,140.400 23.380,140.400 23.600 C 140.400 23.820,140.040 24.000,139.600 24.000 C 139.160 24.000,138.800 24.180,138.800 24.400 C 138.800 24.620,138.395 24.804,137.900 24.809 C 137.405 24.814,136.235 25.165,135.300 25.589 C 134.365 26.014,133.597 26.235,133.594 26.080 C 133.591 25.926,133.448 26.020,133.277 26.290 C 133.105 26.559,132.573 26.840,132.093 26.913 C 131.613 26.986,131.096 27.171,130.944 27.323 C 130.791 27.475,130.337 27.600,129.933 27.600 C 129.530 27.600,129.200 27.780,129.200 28.000 C 129.200 28.220,128.840 28.400,128.400 28.400 C 127.960 28.400,127.600 28.580,127.600 28.800 C 127.600 29.020,127.150 29.200,126.600 29.200 C 126.050 29.200,125.600 29.380,125.600 29.600 C 125.600 29.820,125.240 30.000,124.800 30.000 C 124.360 30.000,124.000 30.180,124.000 30.400 C 124.000 30.620,123.460 30.800,122.800 30.800 C 122.140 30.800,121.600 30.980,121.600 31.200 C 121.600 31.420,121.240 31.600,120.800 31.600 C 120.360 31.600,120.000 31.780,120.000 32.000 C 120.000 32.220,119.728 32.400,119.395 32.400 C 119.062 32.400,118.387 32.608,117.895 32.862 C 116.018 33.833,115.593 34.000,115.005 34.000 C 114.672 34.000,114.400 34.147,114.400 34.328 C 114.400 34.508,113.500 34.900,112.400 35.200 C 111.300 35.500,110.400 35.892,110.400 36.072 C 110.400 36.253,110.040 36.400,109.600 36.400 C 109.160 36.400,108.800 36.580,108.800 36.800 C 108.800 37.020,108.350 37.200,107.800 37.200 C 107.250 37.200,106.800 37.380,106.800 37.600 C 106.800 37.820,106.440 38.000,106.000 38.000 C 105.560 38.000,105.200 38.180,105.200 38.400 C 105.200 38.620,104.851 38.800,104.424 38.800 C 103.997 38.800,103.536 38.980,103.400 39.200 C 103.264 39.420,102.713 39.600,102.176 39.600 C 101.639 39.600,101.200 39.780,101.200 40.000 C 101.200 40.220,100.840 40.400,100.400 40.400 C 99.960 40.400,99.600 40.580,99.600 40.800 C 99.600 41.020,99.155 41.200,98.612 41.200 C 98.069 41.200,96.988 41.558,96.209 41.995 C 95.431 42.432,94.706 42.796,94.599 42.804 C 93.485 42.889,92.000 43.372,92.000 43.650 C 92.000 43.843,91.640 44.000,91.200 44.000 C 90.760 44.000,90.400 44.180,90.400 44.400 C 90.400 44.620,89.961 44.800,89.424 44.800 C 88.887 44.800,88.336 44.980,88.200 45.200 C 88.064 45.420,87.603 45.600,87.176 45.600 C 86.749 45.600,86.400 45.780,86.400 46.000 C 86.400 46.220,86.040 46.400,85.600 46.400 C 85.160 46.400,84.800 46.580,84.800 46.800 C 84.800 47.020,84.260 47.200,83.600 47.200 C 82.940 47.200,82.400 47.380,82.400 47.600 C 82.400 47.820,82.040 48.000,81.600 48.000 C 81.160 48.000,80.800 48.180,80.800 48.400 C 80.800 48.620,80.528 48.800,80.195 48.800 C 79.862 48.800,79.277 48.960,78.895 49.156 C 78.513 49.352,77.300 49.912,76.200 50.400 C 75.100 50.888,73.887 51.448,73.505 51.644 C 73.123 51.840,72.538 52.000,72.205 52.000 C 71.872 52.000,71.600 52.180,71.600 52.400 C 71.600 52.620,71.161 52.800,70.624 52.800 C 70.087 52.800,69.536 52.980,69.400 53.200 C 69.264 53.420,68.803 53.600,68.376 53.600 C 67.949 53.600,67.600 53.780,67.600 54.000 C 67.600 54.220,67.240 54.400,66.800 54.400 C 66.360 54.400,66.000 54.580,66.000 54.800 C 66.000 55.020,65.645 55.200,65.212 55.200 C 64.779 55.200,63.783 55.560,63.000 56.000 C 62.217 56.440,61.311 56.800,60.988 56.800 C 60.665 56.800,60.400 56.980,60.400 57.200 C 60.400 57.420,59.950 57.600,59.400 57.600 C 58.850 57.600,58.400 57.780,58.400 58.000 C 58.400 58.220,58.051 58.400,57.624 58.400 C 57.197 58.400,56.734 58.583,56.596 58.807 C 56.458 59.030,56.169 59.105,55.955 58.972 C 55.740 58.839,55.123 59.021,54.582 59.375 C 54.042 59.729,53.600 59.927,53.600 59.816 C 53.600 59.705,52.965 59.971,52.188 60.407 C 51.411 60.843,50.421 61.200,49.988 61.200 C 49.555 61.200,49.200 61.380,49.200 61.600 C 49.200 61.820,48.750 62.000,48.200 62.000 C 47.650 62.000,47.200 62.180,47.200 62.400 C 47.200 62.620,46.928 62.800,46.595 62.800 C 46.262 62.800,45.677 62.959,45.295 63.153 C 44.913 63.348,44.060 63.752,43.400 64.053 C 42.740 64.353,42.100 64.733,41.978 64.897 C 41.855 65.062,41.270 65.236,40.678 65.285 C 40.085 65.334,39.600 65.515,39.600 65.687 C 39.600 65.859,39.240 66.000,38.800 66.000 C 38.360 66.000,38.000 66.180,38.000 66.400 C 38.000 66.620,37.640 66.800,37.200 66.800 C 36.760 66.800,36.400 66.980,36.400 67.200 C 36.400 67.420,35.961 67.600,35.424 67.600 C 34.887 67.600,34.336 67.780,34.200 68.000 C 34.064 68.220,33.603 68.400,33.176 68.400 C 32.749 68.400,32.400 68.580,32.400 68.800 C 32.400 69.020,31.950 69.200,31.400 69.200 C 30.850 69.200,30.400 69.380,30.400 69.600 C 30.400 69.820,29.950 70.000,29.400 70.000 C 28.850 70.000,28.400 70.180,28.400 70.400 C 28.400 70.620,28.040 70.800,27.600 70.800 C 27.160 70.800,26.800 70.980,26.800 71.200 C 26.800 71.420,26.350 71.600,25.800 71.600 C 25.250 71.600,24.800 71.780,24.800 72.000 C 24.800 72.220,24.440 72.400,24.000 72.400 C 23.560 72.400,23.200 72.580,23.200 72.800 C 23.200 73.020,22.761 73.200,22.224 73.200 C 21.687 73.200,21.136 73.380,21.000 73.600 C 20.864 73.820,20.403 74.000,19.976 74.000 C 19.549 74.000,19.200 74.157,19.200 74.350 C 19.200 74.543,18.705 74.799,18.100 74.921 C 17.495 75.042,16.460 75.365,15.800 75.637 C 15.140 75.910,14.510 76.154,14.400 76.181 C 14.290 76.207,13.819 76.441,13.353 76.700 C 12.887 76.960,12.392 77.058,12.253 76.919 C 12.114 76.780,12.000 76.877,12.000 77.133 C 12.000 77.390,11.550 77.600,11.000 77.600 C 10.450 77.600,10.000 77.780,10.000 78.000 C 10.000 78.220,9.640 78.400,9.200 78.400 C 8.760 78.400,8.400 78.547,8.400 78.728 C 8.400 78.908,7.500 79.300,6.400 79.600 C 5.300 79.900,4.400 80.292,4.400 80.472 C 4.400 80.653,4.040 80.800,3.600 80.800 C 3.160 80.800,2.800 80.980,2.800 81.200 C 2.800 81.420,2.473 81.600,2.074 81.600 C -0.151 81.600,0.000 70.043,0.000 240.854 L -0.000 397.280 1.360 398.640 L 2.720 400.000 16.860 400.000 L 31.000 400.000 31.139 249.500 C 31.276 100.635,31.286 98.982,32.067 97.315 C 33.016 95.291,34.015 94.646,40.000 92.195 C 44.155 90.493,51.760 87.316,53.800 86.429 C 54.240 86.238,55.230 85.807,56.000 85.472 C 56.770 85.137,58.375 84.479,59.568 84.010 C 60.760 83.542,62.470 82.825,63.368 82.418 C 64.265 82.011,66.530 81.050,68.400 80.283 C 70.270 79.515,74.680 77.676,78.200 76.197 C 81.720 74.717,86.130 72.880,88.000 72.114 C 89.870 71.348,92.135 70.389,93.032 69.982 C 93.930 69.575,95.625 68.863,96.800 68.400 C 97.975 67.937,99.685 67.217,100.600 66.800 C 101.515 66.383,103.225 65.663,104.400 65.200 C 105.575 64.737,107.270 64.028,108.168 63.624 C 109.988 62.806,127.512 55.468,132.800 53.311 C 134.670 52.548,137.150 51.490,138.312 50.962 C 139.473 50.433,140.510 50.000,140.616 50.000 C 140.722 50.000,141.572 49.659,142.504 49.241 C 143.437 48.824,145.820 47.812,147.800 46.993 C 149.780 46.174,152.570 45.002,154.000 44.389 C 155.430 43.776,158.850 42.347,161.600 41.213 C 164.350 40.080,167.140 38.907,167.800 38.608 C 168.460 38.308,169.990 37.674,171.200 37.200 C 173.480 36.306,174.489 35.878,177.696 34.447 C 178.738 33.981,179.678 33.600,179.784 33.600 C 179.890 33.600,180.927 33.167,182.088 32.638 C 183.250 32.110,185.730 31.051,187.600 30.285 C 189.470 29.519,193.880 27.683,197.400 26.203 C 200.920 24.724,205.330 22.885,207.200 22.117 C 209.070 21.350,211.320 20.395,212.200 19.996 C 213.080 19.598,215.240 18.699,217.000 18.001 C 218.760 17.302,221.150 16.296,222.312 15.765 C 223.473 15.234,224.510 14.800,224.616 14.800 C 224.796 14.800,226.434 14.104,230.176 12.436 L 231.752 11.734 230.414 11.067 C 229.679 10.700,228.745 10.400,228.339 10.400 C 227.932 10.400,227.600 10.190,227.600 9.933 C 227.600 9.677,227.479 9.587,227.332 9.735 C 227.184 9.882,226.639 9.725,226.121 9.385 C 225.602 9.045,225.002 8.875,224.789 9.007 C 224.575 9.139,224.400 9.057,224.400 8.824 C 224.400 8.591,223.950 8.400,223.400 8.400 C 222.850 8.400,222.400 8.220,222.400 8.000 C 222.400 7.780,222.040 7.600,221.600 7.600 C 221.160 7.600,220.800 7.420,220.800 7.200 C 220.800 6.980,220.260 6.800,219.600 6.800 C 218.940 6.800,218.400 6.620,218.400 6.400 C 218.400 6.180,218.040 6.000,217.600 6.000 C 217.160 6.000,216.800 5.820,216.800 5.600 C 216.800 5.380,216.451 5.200,216.024 5.200 C 215.597 5.200,215.136 5.020,215.000 4.800 C 214.864 4.580,214.313 4.400,213.776 4.400 C 213.239 4.400,212.800 4.220,212.800 4.000 C 212.800 3.780,212.440 3.600,212.000 3.600 C 211.560 3.600,211.200 3.420,211.200 3.200 C 211.200 2.980,210.928 2.800,210.595 2.800 C 210.262 2.800,209.677 2.643,209.295 2.450 C 208.913 2.258,207.790 1.692,206.800 1.194 C 205.018 0.297,198.017 -0.308,195.800 0.244 " stroke="none" fill="#249cc4" fill-rule="evenodd"></path><path id="path5" d="M153.143 57.263 C 148.619 59.887,149.240 66.395,154.200 68.341 C 156.712 69.327,245.708 68.773,247.071 67.763 C 250.014 65.582,250.801 62.330,249.075 59.478 C 247.041 56.118,251.603 56.404,200.200 56.412 L 154.600 56.418 153.143 57.263 M153.408 82.115 C 149.217 84.489,149.012 90.175,153.023 92.819 C 154.868 94.035,245.132 94.035,246.977 92.819 C 251.311 89.962,250.791 83.751,246.051 81.765 C 244.916 81.290,237.594 81.201,199.851 81.207 L 155.000 81.213 153.408 82.115 M153.143 107.263 C 148.619 109.887,149.240 116.395,154.200 118.341 C 156.712 119.327,245.708 118.773,247.071 117.763 C 250.014 115.582,250.801 112.330,249.075 109.478 C 247.041 106.118,251.603 106.404,200.200 106.412 L 154.600 106.418 153.143 107.263 " stroke="none" fill="#a3dbeb" fill-rule="evenodd"></path><path id="path6" d="M90.168 175.695 C 89.491 176.160,88.546 177.136,88.068 177.865 L 87.200 179.189 87.200 231.214 C 87.200 287.960,87.059 284.487,89.446 286.365 L 90.508 287.200 62.954 287.201 C 36.165 287.203,35.364 287.225,34.096 287.998 C 32.546 288.943,31.197 291.007,31.219 292.400 C 31.232 293.224,31.331 293.131,31.780 291.874 C 32.079 291.034,32.656 289.981,33.061 289.533 C 34.853 287.553,34.099 287.600,63.780 287.600 C 79.081 287.600,91.599 287.465,91.597 287.300 C 91.596 287.135,91.060 286.696,90.406 286.323 C 87.365 284.593,87.603 289.263,87.601 231.291 L 87.600 179.583 88.670 177.965 C 90.646 174.980,86.292 175.200,143.396 175.200 C 201.372 175.200,196.790 174.948,198.829 178.246 L 199.738 179.717 200.485 178.795 C 200.896 178.287,201.360 177.667,201.516 177.416 C 201.672 177.165,202.368 176.564,203.062 176.080 L 204.323 175.200 255.835 175.200 C 314.623 175.200,309.822 174.906,311.565 178.614 C 312.398 180.387,312.400 180.507,312.400 231.333 L 312.400 282.274 311.490 283.995 C 310.984 284.952,310.012 286.020,309.301 286.402 C 308.597 286.779,308.137 287.203,308.277 287.344 C 308.418 287.485,320.867 287.600,335.940 287.600 C 368.222 287.600,366.366 287.336,368.270 292.200 C 368.712 293.331,368.741 293.344,368.770 292.425 C 368.812 291.074,367.298 289.002,365.552 288.021 C 364.119 287.216,363.574 287.200,336.746 287.187 C 310.284 287.174,309.428 287.150,310.269 286.448 C 313.014 284.155,312.797 288.889,312.799 231.295 C 312.800 176.749,312.875 179.056,311.021 176.890 C 309.133 174.685,312.182 174.800,255.746 174.800 L 203.614 174.800 201.749 176.587 L 199.884 178.374 198.642 177.087 C 197.959 176.379,196.997 175.575,196.505 175.300 C 195.802 174.907,184.484 174.805,143.505 174.825 L 91.400 174.850 90.168 175.695 M199.215 283.761 C 199.014 284.289,198.345 285.189,197.729 285.761 C 197.112 286.332,196.813 286.800,197.063 286.800 C 197.313 286.800,198.051 286.192,198.704 285.448 L 199.891 284.096 201.446 285.700 L 203.000 287.305 199.300 287.129 C 197.265 287.033,195.600 287.099,195.600 287.277 C 195.600 287.455,197.490 287.600,199.800 287.600 C 204.018 287.600,204.843 287.313,203.015 286.479 C 202.473 286.233,201.570 285.304,201.010 284.415 C 199.818 282.528,199.700 282.485,199.215 283.761 M139.400 288.000 C 139.536 288.220,139.888 288.400,140.182 288.400 C 140.903 288.400,143.200 291.060,143.200 291.895 C 143.200 292.423,143.346 292.371,143.900 291.645 C 145.841 289.102,146.519 288.400,147.036 288.400 C 147.346 288.400,147.600 288.220,147.600 288.000 C 147.600 287.169,146.728 287.661,144.993 289.472 C 143.983 290.526,143.200 291.084,143.200 290.750 C 143.200 289.935,140.723 287.600,139.857 287.600 C 139.470 287.600,139.264 287.780,139.400 288.000 M251.600 287.781 C 251.600 287.881,252.207 288.250,252.948 288.602 C 253.690 288.954,254.631 289.863,255.039 290.621 C 255.962 292.335,256.173 292.336,257.290 290.631 C 257.784 289.878,258.723 288.945,259.378 288.559 C 260.032 288.172,260.356 287.785,260.097 287.699 C 259.478 287.493,257.778 288.765,257.157 289.900 C 256.489 291.122,256.225 291.051,254.552 289.200 C 253.366 287.887,251.600 287.038,251.600 287.781 M31.218 395.126 C 31.195 396.342,31.862 397.547,33.309 398.900 C 34.528 400.041,35.200 400.289,35.200 399.600 C 35.200 399.380,34.961 399.200,34.670 399.200 C 33.854 399.200,32.393 397.447,31.783 395.738 C 31.374 394.590,31.231 394.435,31.218 395.126 M368.200 395.601 C 367.913 396.908,365.870 399.200,364.993 399.200 C 364.693 399.200,364.336 399.380,364.200 399.600 C 364.064 399.820,364.257 400.000,364.629 400.000 C 365.737 400.000,368.800 396.660,368.800 395.453 C 368.800 394.051,368.525 394.119,368.200 395.601 M142.804 396.390 C 142.476 397.183,141.538 398.164,140.451 398.854 C 139.120 399.697,138.862 400.000,139.471 400.000 C 140.347 400.000,142.963 397.807,143.274 396.813 C 143.417 396.356,143.630 396.434,144.229 397.161 C 145.641 398.875,146.985 400.000,147.596 399.979 C 147.992 399.965,147.856 399.724,147.200 399.279 C 146.062 398.506,144.887 397.305,143.975 395.981 L 143.349 395.074 142.804 396.390 M255.600 395.986 C 255.600 396.609,253.167 399.200,252.582 399.200 C 252.288 399.200,251.936 399.380,251.800 399.600 C 251.134 400.677,253.087 399.807,254.494 398.400 C 255.374 397.520,256.142 396.800,256.200 396.800 C 256.258 396.800,257.026 397.520,257.906 398.400 C 258.786 399.280,259.752 399.994,260.053 399.987 C 260.555 399.976,259.971 399.375,258.580 398.473 C 258.349 398.323,257.752 397.615,257.253 396.900 C 256.369 395.633,255.600 395.208,255.600 395.986 " stroke="none" fill="#8aa094" fill-rule="evenodd"></path><path id="path7" d="M35.600 144.289 C 34.133 144.840,32.830 146.123,32.047 147.789 L 31.200 149.591 31.201 220.496 L 31.203 291.400 31.998 290.096 C 33.863 287.037,32.088 287.203,62.954 287.201 L 90.508 287.200 89.446 286.365 C 87.059 284.487,87.200 287.960,87.200 231.214 L 87.200 179.189 88.069 177.863 C 88.547 177.134,89.534 176.147,90.263 175.669 L 91.589 174.800 143.600 174.800 C 184.465 174.800,195.803 174.907,196.505 175.300 C 196.997 175.575,197.959 176.379,198.642 177.087 L 199.884 178.374 201.749 176.587 L 203.614 174.800 255.812 174.800 C 310.880 174.800,308.544 174.724,310.710 176.579 C 312.915 178.467,312.800 175.461,312.799 231.361 C 312.797 288.881,313.014 284.155,310.269 286.448 C 309.428 287.150,310.284 287.174,336.746 287.187 C 367.389 287.202,365.731 287.045,367.904 290.121 L 368.808 291.400 368.704 219.971 L 368.600 148.541 367.536 146.933 C 366.950 146.049,365.843 145.027,365.075 144.663 C 363.684 144.002,37.348 143.632,35.600 144.289 M198.341 285.653 L 196.882 287.200 199.893 287.200 L 202.904 287.200 201.352 285.600 C 200.498 284.721,199.800 284.025,199.800 284.054 C 199.800 284.083,199.144 284.803,198.341 285.653 M141.872 288.900 C 142.549 289.615,143.169 290.419,143.251 290.687 C 143.335 290.961,144.135 290.395,145.086 289.387 L 146.771 287.600 143.707 287.600 L 140.643 287.600 141.872 288.900 M254.454 289.166 C 255.724 290.644,256.800 291.231,256.800 290.447 C 256.800 290.254,257.374 289.534,258.076 288.847 L 259.352 287.600 256.230 287.600 L 253.107 287.600 254.454 289.166 M31.212 398.100 L 31.200 400.000 32.842 400.000 L 34.485 400.000 33.314 398.900 C 32.670 398.295,31.936 397.440,31.684 397.000 C 31.289 396.313,31.223 396.469,31.212 398.100 M143.200 396.884 C 143.200 397.137,142.547 397.941,141.750 398.672 L 140.299 400.000 143.626 400.000 L 146.952 400.000 145.676 398.753 C 144.974 398.066,144.400 397.366,144.400 397.195 C 144.400 397.025,144.130 396.782,143.800 396.655 C 143.470 396.529,143.200 396.632,143.200 396.884 M366.947 398.255 L 365.294 400.000 367.047 400.000 L 368.800 400.000 368.800 398.200 C 368.800 397.210,368.755 396.425,368.700 396.455 C 368.645 396.485,367.856 397.295,366.947 398.255 M254.341 398.453 L 252.882 400.000 256.194 400.000 L 259.506 400.000 257.906 398.400 C 256.012 396.506,256.180 396.504,254.341 398.453 " stroke="none" fill="#518bb0" fill-rule="evenodd"></path><path id="path8" d="M125.207 197.700 L 125.213 220.200 126.107 221.758 C 127.864 224.823,127.921 224.833,144.200 224.709 C 164.474 224.555,162.400 227.639,162.400 197.646 L 162.400 175.200 143.800 175.200 L 125.200 175.200 125.207 197.700 M237.600 197.474 C 237.600 227.750,235.592 224.883,256.680 224.714 C 276.893 224.553,274.800 227.681,274.800 197.640 L 274.800 175.200 256.200 175.200 L 237.600 175.200 237.600 197.474 M194.800 287.207 C 194.470 287.416,191.275 287.591,187.700 287.594 L 181.200 287.600 181.200 309.540 C 181.200 340.055,179.562 337.716,200.800 337.520 C 220.425 337.339,218.563 340.189,218.710 310.100 L 218.819 287.600 207.243 287.600 C 200.139 287.600,195.615 287.450,195.533 287.213 C 195.448 286.966,195.182 286.964,194.800 287.207 M307.422 287.165 C 307.246 287.450,304.881 287.600,300.576 287.600 L 294.000 287.600 294.000 310.341 L 294.000 333.082 294.901 334.419 C 296.907 337.396,296.931 337.400,312.600 337.400 C 333.134 337.400,331.200 340.245,331.200 310.046 L 331.200 287.600 319.880 287.600 C 312.262 287.600,308.418 287.458,308.125 287.165 C 307.812 286.852,307.615 286.852,307.422 287.165 M141.900 287.493 C 142.835 287.577,144.365 287.577,145.300 287.493 C 146.235 287.409,145.470 287.340,143.600 287.340 C 141.730 287.340,140.965 287.409,141.900 287.493 M254.300 287.493 C 255.235 287.577,256.765 287.577,257.700 287.493 C 258.635 287.409,257.870 287.340,256.000 287.340 C 254.130 287.340,253.365 287.409,254.300 287.493 M68.800 309.870 C 68.800 340.102,67.023 337.341,86.600 337.522 C 108.066 337.721,106.451 340.031,106.303 309.344 L 106.200 287.800 87.500 287.696 L 68.800 287.592 68.800 309.870 " stroke="none" fill="#ffbd85" fill-rule="evenodd"></path></g></svg>