<svg id="svg" version="1.1" xmlns="http://www.w3.org/2000/svg" xmlns:xlink="http://www.w3.org/1999/xlink" width="400" height="400" viewBox="0, 0, 400,400"><g id="svgg"><path id="path0" d="M64.453 1.862 C 59.758 4.081,56.888 6.998,54.751 11.719 C 53.164 15.224,53.159 15.798,53.150 200.000 L 53.140 384.766 54.987 388.672 C 57.206 393.367,60.123 396.237,64.844 398.374 C 70.387 400.884,329.613 400.884,335.156 398.374 C 339.877 396.237,342.794 393.367,345.013 388.672 L 346.860 384.766 346.867 227.370 L 346.875 69.975 311.912 34.987 L 276.950 0.000 172.655 0.008 L 68.359 0.015 64.453 1.862 M266.414 39.258 C 266.426 79.695,267.220 80.469,308.736 80.469 L 332.813 80.469 332.813 231.286 L 332.813 382.102 330.895 384.020 L 328.977 385.937 200.000 385.938 L 71.023 385.938 69.105 384.020 L 67.188 382.102 67.188 200.000 L 67.188 17.898 69.105 15.980 L 71.023 14.063 168.714 14.063 L 266.406 14.063 266.414 39.258 M317.393 66.255 C 300.224 67.031,284.559 66.074,282.483 64.122 L 280.469 62.228 280.469 43.033 L 280.469 23.839 301.573 44.927 L 322.678 66.016 317.393 66.255 M111.285 115.136 C 103.740 118.649,99.997 124.913,100.022 133.984 C 100.078 154.679,128.836 161.156,137.950 142.527 C 146.473 125.106,128.818 106.971,111.285 115.136 M166.406 133.594 L 166.406 140.625 233.203 140.625 L 300.000 140.625 300.000 133.594 L 300.000 126.563 233.203 126.563 L 166.406 126.563 166.406 133.594 M124.015 129.102 C 127.108 132.435,126.367 137.001,122.467 138.640 C 118.195 140.437,114.137 137.828,114.087 133.253 C 114.031 128.098,120.553 125.371,124.015 129.102 M112.862 180.883 C 91.082 188.945,98.700 222.206,121.844 220.107 C 146.707 217.853,146.023 181.249,121.094 179.975 C 117.906 179.812,114.842 180.150,112.862 180.883 M166.406 200.000 L 166.406 207.031 233.203 207.031 L 300.000 207.031 300.000 200.000 L 300.000 192.969 233.203 192.969 L 166.406 192.969 166.406 200.000 M123.723 195.369 C 128.025 198.753,125.309 206.250,119.781 206.250 C 118.745 206.250,117.035 205.387,115.980 204.332 C 110.532 198.884,117.677 190.613,123.723 195.369 M115.404 246.947 C 96.876 251.310,94.100 276.862,111.285 284.864 C 128.818 293.029,146.473 274.894,137.950 257.473 C 133.864 249.123,124.578 244.786,115.404 246.947 M166.406 266.406 L 166.406 273.438 233.203 273.438 L 300.000 273.438 300.000 266.406 L 300.000 259.375 233.203 259.375 L 166.406 259.375 166.406 266.406 M125.389 264.322 C 126.527 267.030,126.236 268.377,123.966 270.898 C 120.635 274.599,114.035 271.899,114.087 266.856 C 114.155 260.268,122.863 258.315,125.389 264.322 M111.285 315.136 C 103.740 318.649,99.997 324.913,100.022 333.984 C 100.078 354.679,128.836 361.156,137.950 342.527 C 146.473 325.106,128.818 306.971,111.285 315.136 M166.406 333.594 L 166.406 340.625 233.203 340.625 L 300.000 340.625 300.000 333.594 L 300.000 326.563 233.203 326.563 L 166.406 326.563 166.406 333.594 M124.015 329.102 C 127.108 332.435,126.367 337.001,122.467 338.640 C 118.195 340.437,114.137 337.828,114.087 333.253 C 114.031 328.098,120.553 325.371,124.015 329.102 " stroke="none" fill="#000000" fill-rule="evenodd"></path></g></svg>