<svg id="svg" xmlns="http://www.w3.org/2000/svg" xmlns:xlink="http://www.w3.org/1999/xlink" width="400" height="400" viewBox="0, 0, 400,400"><g id="svgg"><path id="path0" d="M69.141 13.654 C 42.541 19.573,21.740 39.293,14.321 65.625 C 12.099 73.515,12.099 326.485,14.321 334.375 C 21.372 359.400,41.094 378.959,66.016 385.643 C 74.422 387.897,326.380 387.931,334.375 385.679 C 359.400 378.628,378.959 358.906,385.643 333.984 C 387.897 325.578,387.931 73.620,385.679 65.625 C 378.745 41.017,359.739 21.873,334.766 14.342 C 328.518 12.458,77.437 11.807,69.141 13.654 M327.308 39.257 C 344.380 44.508,356.915 57.498,361.047 74.219 C 362.622 80.589,362.622 319.411,361.047 325.781 C 357.640 339.570,348.094 351.398,335.547 357.379 C 325.037 362.388,333.080 362.109,199.219 362.109 L 76.953 362.109 70.642 359.969 C 52.172 353.706,40.261 338.857,38.230 319.561 C 37.314 310.856,37.314 89.144,38.230 80.439 C 40.585 58.073,57.149 40.909,78.906 38.292 C 90.255 36.927,322.669 37.830,327.308 39.257 M77.284 77.284 L 74.963 79.604 75.177 124.763 C 75.418 175.771,74.994 172.451,81.692 175.770 C 85.720 177.766,89.280 177.766,93.308 175.770 C 99.683 172.611,99.559 173.191,100.000 144.333 L 100.391 118.745 191.014 209.372 L 281.638 300.000 256.757 300.000 C 228.479 300.000,227.945 300.097,224.583 305.834 C 221.169 311.660,222.629 319.055,227.983 323.047 C 230.013 324.561,231.473 324.616,275.237 324.823 L 320.396 325.037 322.716 322.716 L 325.037 320.396 324.823 275.237 C 324.582 224.229,325.006 227.549,318.308 224.230 C 314.162 222.176,310.409 222.239,306.260 224.434 C 300.074 227.705,300.000 228.086,300.000 256.627 L 300.000 281.638 209.372 191.014 L 118.745 100.391 144.333 100.000 C 173.191 99.559,172.611 99.683,175.770 93.308 C 177.766 89.280,177.766 85.720,175.770 81.692 C 172.451 74.994,175.771 75.418,124.763 75.177 L 79.604 74.963 77.284 77.284 " stroke="none" fill="#000000" fill-rule="evenodd"></path></g></svg>