<svg id="svg" version="1.1" xmlns="http://www.w3.org/2000/svg" xmlns:xlink="http://www.w3.org/1999/xlink" width="400" height="400" viewBox="0, 0, 400,400"><g id="svgg"><path id="path0" d="M65.057 35.352 C 63.774 37.001,7.031 131.863,7.031 132.358 C 7.031 132.613,33.279 132.732,65.359 132.622 L 123.686 132.422 136.820 85.547 C 144.044 59.766,150.168 37.705,150.430 36.523 L 150.905 34.375 108.361 34.375 C 75.251 34.375,65.648 34.592,65.057 35.352 M168.848 36.906 C 167.685 40.563,142.188 131.880,142.188 132.388 C 142.188 132.622,168.379 132.813,200.391 132.813 C 255.316 132.813,258.592 132.736,258.556 131.445 C 258.535 130.693,254.211 108.633,248.948 82.422 L 239.377 34.766 204.518 34.562 L 169.658 34.359 168.848 36.906 M257.777 35.344 C 257.757 35.885,262.060 58.037,267.339 84.570 L 276.937 132.813 334.953 132.813 C 366.862 132.813,392.954 132.549,392.937 132.227 C 392.919 131.904,379.805 109.844,363.794 83.203 L 334.683 34.766 296.248 34.563 C 265.775 34.402,257.805 34.564,257.777 35.344 M0.000 200.000 L 0.000 249.219 60.547 249.219 L 121.094 249.219 121.094 200.000 L 121.094 150.781 60.547 150.781 L 0.000 150.781 0.000 200.000 M139.063 200.000 L 139.063 249.219 200.000 249.219 L 260.938 249.219 260.938 200.000 L 260.938 150.781 200.000 150.781 L 139.063 150.781 139.063 200.000 M278.906 200.000 L 278.906 249.219 339.453 249.219 L 400.000 249.219 400.000 200.000 L 400.000 150.781 339.453 150.781 L 278.906 150.781 278.906 200.000 M0.000 316.406 L 0.000 365.625 60.547 365.625 L 121.094 365.625 121.094 316.406 L 121.094 267.188 60.547 267.188 L 0.000 267.188 0.000 316.406 M139.063 316.406 L 139.063 365.625 200.000 365.625 L 260.938 365.625 260.938 316.406 L 260.938 267.188 200.000 267.188 L 139.063 267.188 139.063 316.406 M278.906 316.406 L 278.906 365.625 339.453 365.625 L 400.000 365.625 400.000 316.406 L 400.000 267.188 339.453 267.188 L 278.906 267.188 278.906 316.406 " stroke="none" fill="#000000" fill-rule="evenodd"></path></g></svg>