<svg id="svg" version="1.1" xmlns="http://www.w3.org/2000/svg" xmlns:xlink="http://www.w3.org/1999/xlink" width="400" height="400" viewBox="0, 0, 400,400"><g id="svgg"><path id="path0" d="M382.000 13.763 C 382.000 13.843,382.450 14.203,383.000 14.563 C 383.550 14.924,384.000 15.063,384.000 14.873 C 384.000 14.684,383.550 14.323,383.000 14.073 C 382.450 13.822,382.000 13.683,382.000 13.763 M264.909 15.890 C 264.199 16.694,263.702 17.435,263.804 17.537 C 264.015 17.749,266.384 15.155,266.394 14.700 C 266.404 14.235,266.289 14.327,264.909 15.890 M275.449 124.274 L 166.372 233.347 163.886 230.979 C 162.519 229.676,168.420 235.679,177.000 244.318 C 195.517 262.963,196.677 263.748,203.107 261.980 C 206.474 261.054,207.064 260.485,272.488 195.053 C 321.305 146.230,337.273 130.488,337.844 130.617 C 338.355 130.733,339.054 130.266,340.000 129.177 C 341.449 127.509,341.976 126.975,347.006 122.094 L 350.000 119.187 353.049 122.145 C 356.589 125.580,357.981 126.970,363.322 132.407 C 365.480 134.603,367.505 136.400,367.822 136.400 C 368.140 136.400,368.400 136.591,368.400 136.824 C 368.400 137.057,368.565 137.145,368.768 137.020 C 368.970 136.895,369.407 137.064,369.739 137.396 C 370.938 138.595,381.200 137.989,381.200 136.720 C 381.200 136.544,381.525 136.400,381.922 136.400 C 383.054 136.400,385.472 133.924,386.794 131.410 L 388.000 129.119 388.000 74.559 C 388.000 38.453,387.865 20.000,387.600 20.000 C 387.380 20.000,387.200 19.640,387.200 19.200 C 387.200 18.760,387.064 18.400,386.898 18.400 C 386.731 18.400,386.356 17.860,386.064 17.200 C 385.772 16.540,385.267 16.000,384.943 16.000 C 384.618 16.000,384.464 15.820,384.600 15.600 C 385.304 14.460,376.474 23.252,275.449 124.274 M267.600 36.629 C 267.600 36.884,268.146 37.416,269.612 38.591 C 270.177 39.044,270.009 38.744,269.222 37.891 C 267.835 36.391,267.600 36.208,267.600 36.629 M277.200 46.069 C 277.200 46.466,278.806 48.127,279.001 47.932 C 279.109 47.825,278.748 47.314,278.198 46.799 C 277.649 46.283,277.200 45.954,277.200 46.069 M280.387 49.584 C 280.878 49.894,280.819 50.090,280.023 50.780 C 279.500 51.234,279.160 51.693,279.268 51.801 C 279.375 51.909,279.873 51.561,280.374 51.028 C 281.266 50.078,281.219 49.194,280.276 49.206 C 279.985 49.210,280.028 49.356,280.387 49.584 M276.116 54.650 C 276.254 54.787,275.969 55.253,275.483 55.684 C 274.754 56.333,274.827 56.319,275.900 55.607 C 277.368 54.634,277.491 54.400,276.533 54.400 C 276.167 54.400,275.979 54.512,276.116 54.650 M270.442 60.476 C 269.749 61.214,269.295 62.055,269.416 62.377 C 269.555 62.743,267.838 64.789,264.717 67.977 L 259.800 73.000 264.898 68.008 C 268.484 64.497,269.933 62.818,269.784 62.348 C 269.645 61.913,270.025 61.325,270.874 60.661 C 271.590 60.101,272.065 59.532,271.930 59.397 C 271.796 59.262,271.126 59.748,270.442 60.476 M249.396 83.300 L 242.600 90.200 249.500 83.404 C 253.295 79.667,256.400 76.562,256.400 76.504 C 256.400 76.219,255.709 76.890,249.396 83.300 M232.996 99.700 L 226.200 106.600 233.100 99.804 C 239.510 93.491,240.181 92.800,239.896 92.800 C 239.838 92.800,236.733 95.905,232.996 99.700 M216.195 116.500 L 209.800 123.000 216.300 116.605 C 222.339 110.663,222.981 110.000,222.695 110.000 C 222.638 110.000,219.713 112.925,216.195 116.500 M199.396 133.300 L 192.600 140.200 199.500 133.404 C 205.910 127.091,206.581 126.400,206.296 126.400 C 206.238 126.400,203.133 129.505,199.396 133.300 M182.996 149.700 L 176.200 156.600 183.100 149.804 C 189.510 143.491,190.181 142.800,189.896 142.800 C 189.838 142.800,186.733 145.905,182.996 149.700 M166.195 166.500 L 159.800 173.000 166.300 166.605 C 169.875 163.087,172.800 160.162,172.800 160.105 C 172.800 159.819,172.137 160.461,166.195 166.500 M149.396 183.300 L 142.600 190.200 149.500 183.404 C 155.910 177.091,156.581 176.400,156.296 176.400 C 156.238 176.400,153.133 179.505,149.396 183.300 M141.155 191.500 C 139.881 192.908,139.056 194.000,139.266 194.000 C 139.357 194.000,140.108 193.190,140.935 192.200 C 142.587 190.224,142.735 189.753,141.155 191.500 M137.852 197.700 C 137.536 198.879,137.582 201.614,137.933 202.500 C 138.086 202.885,138.211 201.760,138.211 200.000 C 138.211 196.474,138.200 196.404,137.852 197.700 M150.600 218.000 C 153.674 221.080,156.279 223.600,156.389 223.600 C 156.499 223.600,154.074 221.080,151.000 218.000 C 147.926 214.920,145.321 212.400,145.211 212.400 C 145.101 212.400,147.526 214.920,150.600 218.000 " stroke="none" fill="#409ce7" fill-rule="evenodd"></path><path id="path1" d="M273.397 195.114 C 207.430 260.995,207.799 260.633,205.797 261.547 C 205.139 261.847,204.287 262.252,203.905 262.447 C 203.004 262.905,196.996 262.905,196.095 262.447 C 195.713 262.252,194.860 261.847,194.200 261.547 C 192.547 260.794,191.978 260.257,177.804 246.075 C 170.916 239.182,165.307 233.819,165.340 234.156 C 165.373 234.494,133.381 266.797,94.246 305.941 L 23.092 377.113 24.907 378.929 C 25.906 379.927,26.805 380.662,26.904 380.562 C 27.004 380.462,27.314 380.655,27.592 380.990 C 27.870 381.326,28.263 381.600,28.466 381.600 C 28.668 381.600,29.220 381.960,29.692 382.400 C 30.164 382.840,30.787 383.200,31.075 383.200 C 31.364 383.200,31.600 383.380,31.600 383.600 C 31.600 383.820,31.960 384.000,32.400 384.000 C 32.840 384.000,33.200 384.180,33.200 384.400 C 33.200 384.620,33.449 384.800,33.754 384.800 C 34.059 384.800,34.811 385.061,35.426 385.380 C 36.040 385.698,36.691 385.868,36.871 385.756 C 37.052 385.644,37.200 385.743,37.200 385.976 C 37.200 386.209,37.661 386.400,38.224 386.400 C 38.787 386.400,39.157 386.545,39.047 386.723 C 38.938 386.901,39.602 387.091,40.524 387.145 C 41.446 387.199,42.371 387.413,42.580 387.621 C 43.104 388.144,305.992 388.135,307.366 387.613 C 307.925 387.400,309.005 387.184,309.766 387.133 C 310.526 387.082,311.059 386.896,310.951 386.720 C 310.842 386.544,311.178 386.400,311.697 386.400 C 312.769 386.400,314.792 385.552,314.797 385.100 C 314.799 384.935,315.162 384.800,315.605 384.800 C 316.496 384.800,317.740 384.169,318.955 383.100 C 319.393 382.715,320.127 382.400,320.587 382.400 C 321.047 382.400,321.683 382.040,322.000 381.600 C 322.317 381.160,322.719 380.800,322.893 380.800 C 323.362 380.800,330.800 373.279,330.800 372.805 C 330.800 372.582,330.980 372.400,331.200 372.400 C 331.420 372.400,331.600 372.130,331.600 371.800 C 331.600 371.470,331.780 371.200,332.000 371.200 C 332.220 371.200,332.400 370.840,332.400 370.400 C 332.400 369.960,332.580 369.600,332.800 369.600 C 333.020 369.600,333.200 369.330,333.200 369.000 C 333.200 368.670,333.380 368.400,333.600 368.400 C 333.820 368.400,334.000 368.040,334.000 367.600 C 334.000 367.160,334.180 366.800,334.400 366.800 C 334.620 366.800,334.800 366.350,334.800 365.800 C 334.800 365.250,334.935 364.799,335.100 364.797 C 335.506 364.793,336.400 362.814,336.400 361.920 C 336.400 361.524,336.562 361.200,336.760 361.200 C 336.958 361.200,337.251 360.345,337.413 359.300 C 337.806 356.755,338.090 131.200,337.700 131.200 C 337.532 131.200,308.596 159.961,273.397 195.114 " stroke="none" fill="#e4b424" fill-rule="evenodd"></path><path id="path2" d="M42.000 62.404 C 42.000 62.622,41.460 62.800,40.800 62.800 C 40.140 62.800,39.600 62.943,39.600 63.118 C 39.600 63.293,38.930 63.482,38.112 63.537 C 37.294 63.592,36.529 63.764,36.412 63.919 C 36.187 64.219,35.027 64.795,32.900 65.664 C 32.185 65.956,31.600 66.331,31.600 66.498 C 31.600 66.664,31.322 66.800,30.983 66.800 C 30.325 66.800,29.803 67.158,27.925 68.900 C 27.272 69.505,26.569 70.000,26.362 70.000 C 25.877 70.000,21.413 74.513,19.615 76.822 C 18.853 77.800,18.088 78.660,17.915 78.733 C 17.742 78.807,17.600 79.122,17.600 79.433 C 17.600 79.745,17.420 80.000,17.200 80.000 C 16.980 80.000,16.800 80.360,16.800 80.800 C 16.800 81.240,16.620 81.600,16.400 81.600 C 16.180 81.600,16.000 81.960,16.000 82.400 C 16.000 82.840,15.820 83.200,15.600 83.200 C 15.380 83.200,15.200 83.472,15.200 83.805 C 15.200 84.468,14.397 86.056,13.866 86.445 C 13.682 86.579,13.547 86.804,13.566 86.945 C 13.707 88.003,13.543 89.212,13.280 89.049 C 13.104 88.941,12.916 89.515,12.863 90.326 C 12.809 91.137,12.594 91.860,12.384 91.933 C 11.855 92.117,11.866 357.888,12.395 358.067 C 12.610 358.140,12.834 358.857,12.893 359.661 C 12.952 360.465,13.135 361.039,13.300 360.937 C 13.557 360.779,13.792 362.382,13.647 363.300 C 13.621 363.465,13.780 363.600,14.000 363.600 C 14.220 363.600,14.400 363.960,14.400 364.400 C 14.400 364.840,14.580 365.200,14.800 365.200 C 15.020 365.200,15.200 365.560,15.200 366.000 C 15.200 366.440,15.380 366.800,15.600 366.800 C 15.820 366.800,16.004 367.115,16.009 367.500 C 16.014 367.885,16.370 368.650,16.800 369.200 C 17.230 369.750,17.587 370.380,17.593 370.600 C 17.599 370.820,18.143 371.575,18.802 372.278 C 19.461 372.981,20.000 373.703,20.000 373.881 C 20.000 374.269,22.702 376.800,23.116 376.800 C 23.491 376.800,165.355 234.934,165.543 234.370 C 165.621 234.135,159.908 228.151,152.847 221.071 C 145.786 213.992,139.597 207.570,139.093 206.800 C 136.499 202.831,136.494 197.306,139.083 193.200 C 139.568 192.430,168.953 162.820,204.383 127.400 C 239.812 91.981,268.800 62.775,268.800 62.498 C 268.800 62.096,246.159 61.997,155.400 62.002 C 80.860 62.006,42.000 62.144,42.000 62.404 " stroke="none" fill="#fbcb2b" fill-rule="evenodd"></path><path id="path3" d="M204.347 127.530 C 132.056 199.846,137.400 194.061,137.400 200.000 C 137.400 206.060,134.102 202.308,178.500 246.758 C 192.013 260.287,192.556 260.798,194.200 261.547 C 194.860 261.847,195.713 262.252,196.095 262.447 C 196.477 262.641,198.234 262.800,200.000 262.800 C 201.766 262.800,203.523 262.641,203.905 262.447 C 204.287 262.252,205.139 261.847,205.797 261.547 C 207.799 260.633,207.429 260.996,273.233 195.279 C 308.341 160.217,337.295 131.388,337.576 131.215 C 337.941 130.989,337.958 130.821,337.637 130.623 C 337.369 130.457,311.168 156.369,272.538 195.003 C 236.981 230.565,207.238 260.062,206.444 260.552 C 203.197 262.558,199.424 262.910,195.715 261.553 C 193.386 260.701,141.882 210.235,139.574 206.543 C 137.231 202.797,137.098 198.094,139.217 193.922 C 139.474 193.415,168.953 163.712,204.725 127.916 C 240.497 92.120,269.681 62.748,269.579 62.646 C 269.477 62.544,240.123 91.742,204.347 127.530 " stroke="none" fill="#c5ae4a" fill-rule="evenodd"></path><path id="path4" d="M269.600 12.807 C 269.050 13.233,268.285 13.586,267.900 13.591 C 267.515 13.596,267.200 13.881,267.200 14.224 C 267.200 14.567,267.020 14.736,266.800 14.600 C 266.580 14.464,266.400 14.506,266.400 14.693 C 266.400 14.880,265.770 15.701,265.000 16.517 C 264.231 17.333,263.556 18.136,263.500 18.300 C 263.445 18.465,263.271 18.557,263.114 18.505 C 262.957 18.452,262.923 18.654,263.037 18.953 C 263.152 19.252,263.002 19.745,262.705 20.048 C 262.101 20.663,261.872 29.726,262.469 29.357 C 262.651 29.245,262.800 29.619,262.800 30.189 C 262.800 30.759,263.080 31.333,263.423 31.464 C 263.766 31.596,263.955 31.941,263.843 32.231 C 263.732 32.523,263.990 32.870,264.420 33.006 C 264.849 33.143,265.200 33.468,265.200 33.730 C 265.200 33.992,266.189 35.079,267.398 36.145 C 268.607 37.210,269.494 38.248,269.368 38.451 C 269.243 38.654,269.379 38.770,269.670 38.710 C 269.962 38.649,270.155 38.825,270.100 39.100 C 270.045 39.375,270.245 39.600,270.544 39.600 C 270.843 39.600,271.426 40.050,271.839 40.600 C 272.252 41.150,272.828 41.600,273.119 41.600 C 273.409 41.600,273.536 41.780,273.400 42.000 C 273.264 42.220,273.450 42.400,273.814 42.400 C 274.177 42.400,274.569 42.758,274.683 43.196 C 274.797 43.633,275.050 43.892,275.245 43.772 C 275.440 43.651,275.600 43.760,275.600 44.013 C 275.600 44.267,275.960 44.931,276.400 45.491 C 276.840 46.050,277.200 46.354,277.200 46.166 C 277.200 45.979,278.117 46.787,279.239 47.962 L 281.277 50.100 279.739 51.611 C 278.892 52.443,278.061 53.037,277.890 52.932 C 277.720 52.827,277.630 52.979,277.690 53.270 C 277.751 53.562,277.566 53.752,277.281 53.694 C 276.996 53.635,276.815 53.819,276.880 54.103 C 277.016 54.695,272.598 59.264,272.238 58.904 C 272.107 58.774,272.000 58.960,272.000 59.319 C 272.000 60.051,270.661 60.928,270.219 60.486 C 270.062 60.329,269.993 60.470,270.067 60.800 C 270.140 61.130,269.967 61.352,269.683 61.294 C 269.278 61.211,269.264 61.372,269.620 62.038 C 270.040 62.822,265.103 67.862,205.450 127.544 C 140.711 192.314,139.200 193.850,139.200 194.883 C 139.200 195.189,138.981 195.659,138.714 195.926 C 137.829 196.811,138.121 203.108,139.147 205.241 C 139.929 206.866,150.102 217.423,163.947 230.974 L 166.372 233.347 275.240 124.483 C 335.117 64.608,384.308 15.720,384.553 15.844 C 384.799 15.968,384.550 15.698,384.000 15.244 C 383.450 14.789,382.854 14.414,382.676 14.409 C 382.498 14.404,382.467 14.216,382.606 13.990 C 382.745 13.765,382.711 13.614,382.530 13.655 C 382.348 13.696,381.693 13.520,381.074 13.265 C 380.455 13.009,379.769 12.800,379.550 12.800 C 379.332 12.800,379.263 12.621,379.398 12.403 C 379.944 11.521,270.741 11.922,269.600 12.807 " stroke="none" fill="#42a5f5" fill-rule="evenodd"></path></g></svg>